<?xml version="1.0" encoding="UTF-8" standalone="no"?>
<!-- Created with Inkscape (http://www.inkscape.org/) -->

<svg
   xmlns:dc="http://purl.org/dc/elements/1.1/"
   xmlns:cc="http://creativecommons.org/ns#"
   xmlns:rdf="http://www.w3.org/1999/02/22-rdf-syntax-ns#"
   xmlns:svg="http://www.w3.org/2000/svg"
   xmlns="http://www.w3.org/2000/svg"
   version="1.1"
   width="512"
   height="512"
   id="svg2"
   xml:space="preserve"><metadata
     id="metadata8"><rdf:RDF><cc:Work
         rdf:about=""><dc:format>image/svg+xml</dc:format><dc:type
           rdf:resource="http://purl.org/dc/dcmitype/StillImage" /><dc:title></dc:title></cc:Work></rdf:RDF></metadata><defs
     id="defs6"><clipPath
       id="clipPath18"><path
         d="M 0,600 800,600 800,0 0,0 0,600 z"
         id="path20" /></clipPath><clipPath
       id="clipPath26"><path
         d="m 282.752,47.7822 234.496,0 0,-14.1181 -234.496,0 0,14.1181 z"
         id="path28" /></clipPath><clipPath
       id="clipPath132"><path
         d="m 490.365,342.561 80,0 0,-22.561 -80,0 0,22.561 z"
         id="path134" /></clipPath><clipPath
       id="clipPath148"><path
         d="m 360.365,342.561 80,0 0,-22.561 -80,0 0,22.561 z"
         id="path150" /></clipPath><clipPath
       id="clipPath164"><path
         d="m 230.365,342.561 80,0 0,-22.561 -80,0 0,22.561 z"
         id="path166" /></clipPath><clipPath
       id="clipPath180"><path
         d="m 100.365,342.561 80,0 0,-22.561 -80,0 0,22.561 z"
         id="path182" /></clipPath><clipPath
       id="clipPath196"><path
         d="m 620.365,342.561 80,0 0,-22.561 -80,0 0,22.561 z"
         id="path198" /></clipPath><clipPath
       id="clipPath212"><path
         d="m 490.365,232.561 80,0 0,-22.561 -80,0 0,22.561 z"
         id="path214" /></clipPath><clipPath
       id="clipPath228"><path
         d="m 360.365,232.561 80,0 0,-22.561 -80,0 0,22.561 z"
         id="path230" /></clipPath><clipPath
       id="clipPath244"><path
         d="m 230.365,232.561 80,0 0,-22.561 -80,0 0,22.561 z"
         id="path246" /></clipPath><clipPath
       id="clipPath260"><path
         d="m 100.365,232.561 80,0 0,-22.561 -80,0 0,22.561 z"
         id="path262" /></clipPath><clipPath
       id="clipPath276"><path
         d="m 620.365,232.561 80,0 0,-22.561 -80,0 0,22.561 z"
         id="path278" /></clipPath><clipPath
       id="clipPath292"><path
         d="m 490.365,452.561 80,0 0,-22.561 -80,0 0,22.561 z"
         id="path294" /></clipPath><clipPath
       id="clipPath308"><path
         d="m 360.365,452.561 80,0 0,-22.561 -80,0 0,22.561 z"
         id="path310" /></clipPath><clipPath
       id="clipPath324"><path
         d="m 230.365,452.561 80,0 0,-22.561 -80,0 0,22.561 z"
         id="path326" /></clipPath><clipPath
       id="clipPath340"><path
         d="m 100.365,452.561 80,0 0,-22.561 -80,0 0,22.561 z"
         id="path342" /></clipPath><clipPath
       id="clipPath356"><path
         d="m 620.365,452.561 80,0 0,-22.561 -80,0 0,22.561 z"
         id="path358" /></clipPath><clipPath
       id="clipPath372"><path
         d="m 490.365,122.561 80,0 0,-22.561 -80,0 0,22.561 z"
         id="path374" /></clipPath><clipPath
       id="clipPath388"><path
         d="m 360.365,122.561 80,0 0,-22.561 -80,0 0,22.561 z"
         id="path390" /></clipPath><clipPath
       id="clipPath404"><path
         d="m 230.365,122.561 80,0 0,-22.561 -80,0 0,22.561 z"
         id="path406" /></clipPath><clipPath
       id="clipPath420"><path
         d="m 100.365,122.561 80,0 0,-22.561 -80,0 0,22.561 z"
         id="path422" /></clipPath><clipPath
       id="clipPath436"><path
         d="m 620.365,122.561 80,0 0,-22.561 -80,0 0,22.561 z"
         id="path438" /></clipPath><clipPath
       id="clipPath512"><path
         d="m 372.96,489.958 50.009,0 0,-50.009 -50.009,0 0,50.009 z"
         id="path514" /></clipPath><clipPath
       id="clipPath536"><path
         d="m 240.295,486.032 60.14,0 0,-48.943 -60.14,0 0,48.943 z"
         id="path538" /></clipPath><clipPath
       id="clipPath540"><path
         d="m 254.33,486.032 32.07,0 0,-17.455 -32.07,0 0,17.455 z"
         id="path542" /></clipPath><clipPath
       id="clipPath544"><path
         d="m 240.295,468.577 60.14,0 0,-31.488 -60.14,0 0,31.488 z"
         id="path546" /></clipPath><clipPath
       id="clipPath596"><path
         d="m 240.295,497.23 60.141,0 0,-48.943 -60.141,0 0,48.943 z"
         id="path598" /></clipPath><clipPath
       id="clipPath600"><path
         d="m 240.295,497.23 60.141,0 0,-31.487 -60.141,0 0,31.487 z"
         id="path602" /></clipPath><clipPath
       id="clipPath604"><path
         d="m 254.33,465.743 32.07,0 0,-17.456 -32.07,0 0,17.456 z"
         id="path606" /></clipPath><clipPath
       id="clipPath684"><path
         d="m 102.597,354.847 69.884,0 0,-27.758 -69.884,0 0,27.758 z"
         id="path686" /></clipPath><clipPath
       id="clipPath724"><path
         d="m 244.829,372.032 27.562,0 0,-44.944 -27.562,0 0,44.944 z"
         id="path726" /></clipPath><clipPath
       id="clipPath740"><path
         d="m 249.933,367.403 17.378,0 0,-22.625 -17.378,0 0,22.625 z"
         id="path742" /></clipPath><clipPath
       id="clipPath768"><path
         d="m 274.486,387.646 21.416,0 0,-47.474 -21.416,0 0,47.474 z"
         id="path770" /></clipPath><clipPath
       id="clipPath784"><path
         d="m 275.278,381.136 16.779,0 0,-21.441 -16.779,0 0,21.441 z"
         id="path786" /></clipPath><clipPath
       id="clipPath832"><path
         d="m 502.919,477.471 8.196,0 0,-15.311 -8.196,0 0,15.311 z"
         id="path834" /></clipPath><clipPath
       id="clipPath848"><path
         d="m 505.033,492.143 12.164,0 0,-9.743 -12.164,0 0,9.743 z"
         id="path850" /></clipPath><clipPath
       id="clipPath864"><path
         d="m 507.017,488.484 50.496,0 0,-51.089 -50.496,0 0,51.089 z"
         id="path866" /></clipPath><clipPath
       id="clipPath880"><path
         d="m 518.066,496.422 21.355,0 0,-4.279 -21.355,0 0,4.279 z"
         id="path882" /></clipPath><clipPath
       id="clipPath904"><path
         d="m 517.338,507.424 5.862,0 0,-3.966 -5.862,0 0,3.966 z"
         id="path906" /></clipPath><clipPath
       id="clipPath960"><path
         d="m 525.077,347.096 19.034,0 0,-7.447 -19.034,0 0,7.447 z"
         id="path962" /></clipPath><clipPath
       id="clipPath1000"><path
         d="m 514.955,369.522 29.156,0 0,-31.323 -29.156,0 0,31.323 z"
         id="path1002" /></clipPath><clipPath
       id="clipPath1028"><path
         d="m 544.437,335.938 19.034,0 0,-7.446 -19.034,0 0,7.446 z"
         id="path1030" /></clipPath><clipPath
       id="clipPath1088"><path
         d="m 109.963,251.575 18.125,0 0,-18.22 -18.125,0 0,18.22 z"
         id="path1090" /></clipPath><clipPath
       id="clipPath1104"><path
         d="m 147.108,251.574 18.126,0 0,-18.218 -18.126,0 0,18.218 z"
         id="path1106" /></clipPath><clipPath
       id="clipPath1156"><path
         d="m 366.792,354.271 67.131,0 0,-27.182 -67.131,0 0,27.182 z"
         id="path1158" /></clipPath><clipPath
       id="clipPath1172"><path
         d="m 366.792,378.452 67.131,0 0,-27.181 -67.131,0 0,27.181 z"
         id="path1174" /></clipPath><clipPath
       id="clipPath1192"><path
         d="m 675.988,470.762 11.222,0 0,-14.732 -11.222,0 0,14.732 z"
         id="path1194" /></clipPath><clipPath
       id="clipPath1212"><path
         d="m 665.481,467.24 22.416,0 0,-26.281 -22.416,0 0,26.281 z"
         id="path1214" /></clipPath><clipPath
       id="clipPath1228"><path
         d="m 678.573,480.74 10.442,0 0,-39.777 -10.442,0 0,39.777 z"
         id="path1230" /></clipPath><clipPath
       id="clipPath1244"><path
         d="m 665.481,480.74 15.106,0 0,-15.847 -15.106,0 0,15.847 z"
         id="path1246" /></clipPath><clipPath
       id="clipPath1264"><path
         d="m 647.34,495.902 14.731,0 0,-11.224 -14.731,0 0,11.224 z"
         id="path1266" /></clipPath><clipPath
       id="clipPath1284"><path
         d="m 632.269,496.588 26.28,0 0,-22.416 -26.28,0 0,22.416 z"
         id="path1286" /></clipPath><clipPath
       id="clipPath1300"><path
         d="m 632.272,497.705 39.778,0 0,-10.441 -39.778,0 0,10.441 z"
         id="path1302" /></clipPath><clipPath
       id="clipPath1316"><path
         d="m 656.202,489.277 15.848,0 0,-15.105 -15.848,0 0,15.105 z"
         id="path1318" /></clipPath><clipPath
       id="clipPath1336"><path
         d="m 638.511,463.057 9.158,0 0,-11.123 -9.158,0 0,11.123 z"
         id="path1338" /></clipPath><clipPath
       id="clipPath1356"><path
         d="m 643.241,456.361 11.123,0 0,-9.158 -11.123,0 0,9.158 z"
         id="path1358" /></clipPath><clipPath
       id="clipPath1376"><path
         d="m 677.882,503.375 16.803,0 0,-16.801 -16.803,0 0,16.801 z"
         id="path1378" /></clipPath><clipPath
       id="clipPath1392"><path
         d="m 646.777,499.116 43.647,0 0,-43.647 -43.647,0 0,43.647 z"
         id="path1394" /></clipPath><clipPath
       id="clipPath1412"><path
         d="m 258.956,262.394 26.084,0 0,-26.083 -26.084,0 0,26.083 z"
         id="path1414" /></clipPath><clipPath
       id="clipPath1428"><path
         d="m 242.849,252.914 32.709,0 0,-32.711 -32.709,0 0,32.711 z"
         id="path1430" /></clipPath><clipPath
       id="clipPath1444"><path
         d="m 239.9,262.046 28.541,0 0,-44.752 -28.541,0 0,44.752 z"
         id="path1446" /></clipPath><clipPath
       id="clipPath1460"><path
         d="m 239.937,245.797 44.754,0 0,-28.542 -44.754,0 0,28.542 z"
         id="path1462" /></clipPath><clipPath
       id="clipPath1480"><path
         d="m 260.124,273.885 36.406,0 0,-36.405 -36.406,0 0,36.405 z"
         id="path1482" /></clipPath><clipPath
       id="clipPath1496"><path
         d="m 267.349,276.059 25.216,0 0,-13.463 -25.216,0 0,13.463 z"
         id="path1498" /></clipPath><clipPath
       id="clipPath1520"><path
         d="m 626.985,353.628 66.76,0 0,-26.539 -66.76,0 0,26.539 z"
         id="path1522" /></clipPath><clipPath
       id="clipPath1536"><path
         d="m 626.985,378.167 66.76,0 0,-26.539 -66.76,0 0,26.539 z"
         id="path1538" /></clipPath><clipPath
       id="clipPath1600"><path
         d="m 631.984,347.097 32.333,0 0,-14.008 -32.333,0 0,14.008 z"
         id="path1602" /></clipPath><clipPath
       id="clipPath1604"><path
         d="m 631.984,347.097 32.333,0 0,-2.008 -32.333,0 0,2.008 z"
         id="path1606" /></clipPath><clipPath
       id="clipPath1608"><path
         d="m 640.56,335.097 23.757,0 0,-2.008 -23.757,0 0,2.008 z"
         id="path1610" /></clipPath><clipPath
       id="clipPath1612"><path
         d="m 635.021,343.097 29.296,0 0,-2.008 -29.296,0 0,2.008 z"
         id="path1614" /></clipPath><clipPath
       id="clipPath1616"><path
         d="m 637.854,339.097 26.463,0 0,-2.008 -26.463,0 0,2.008 z"
         id="path1618" /></clipPath><clipPath
       id="clipPath1724"><path
         d="m 516.251,281.048 23.978,0 0,-45.721 -23.978,0 0,45.721 z"
         id="path1726" /></clipPath><clipPath
       id="clipPath1740"><path
         d="m 515.858,279.413 30.701,0 0,-47.271 -30.701,0 0,47.271 z"
         id="path1742" /></clipPath><clipPath
       id="clipPath1764"><path
         d="m 367.93,160.341 53.291,0 0,-53.289 -53.291,0 0,53.289 z"
         id="path1766" /></clipPath><clipPath
       id="clipPath1780"><path
         d="m 378.498,170.907 53.289,0 0,-53.287 -53.289,0 0,53.287 z"
         id="path1782" /></clipPath><clipPath
       id="clipPath1796"><path
         d="m 383.677,152.676 29.878,0 0,-29.876 -29.878,0 0,29.876 z"
         id="path1798" /></clipPath><clipPath
       id="clipPath1820"><path
         d="m 389.325,149.514 21.069,0 0,-21.068 -21.069,0 0,21.068 z"
         id="path1822" /></clipPath><clipPath
       id="clipPath1836"><path
         d="m 395.224,143.616 9.272,0 0,-9.271 -9.272,0 0,9.271 z"
         id="path1838" /></clipPath><clipPath
       id="clipPath1852"><path
         d="m 394.311,148.358 11.097,0 0,-5.923 -11.097,0 0,5.923 z"
         id="path1854" /></clipPath><clipPath
       id="clipPath1868"><path
         d="m 396.113,135.382 7.491,0 0,-5.779 -7.491,0 0,5.779 z"
         id="path1870" /></clipPath><clipPath
       id="clipPath1888"><path
         d="m 392.457,165.868 5.228,0 0,-5.228 -5.228,0 0,5.228 z"
         id="path1890" /></clipPath><clipPath
       id="clipPath1904"><path
         d="m 391.835,165.247 5.228,0 0,-5.228 -5.228,0 0,5.228 z"
         id="path1906" /></clipPath><clipPath
       id="clipPath1920"><path
         d="m 391.213,164.626 5.229,0 0,-5.229 -5.229,0 0,5.229 z"
         id="path1922" /></clipPath><clipPath
       id="clipPath1936"><path
         d="m 390.592,164.005 5.228,0 0,-5.229 -5.228,0 0,5.229 z"
         id="path1938" /></clipPath><clipPath
       id="clipPath1952"><path
         d="m 389.971,163.382 5.228,0 0,-5.229 -5.228,0 0,5.229 z"
         id="path1954" /></clipPath><clipPath
       id="clipPath1968"><path
         d="m 389.35,162.761 5.228,0 0,-5.229 -5.228,0 0,5.229 z"
         id="path1970" /></clipPath><clipPath
       id="clipPath1996"><path
         d="m 505.882,157.414 43.832,0 0,-45.294 -43.832,0 0,45.294 z"
         id="path1998" /></clipPath><clipPath
       id="clipPath2028"><path
         d="m 503.506,147.077 8.731,0 0,-27.468 -8.731,0 0,27.468 z"
         id="path2030" /></clipPath><clipPath
       id="clipPath2044"><path
         d="m 529.838,166.99 1.414,0 0,-1.414 -1.414,0 0,1.414 z"
         id="path2046" /></clipPath><clipPath
       id="clipPath2060"><path
         d="m 530.026,164.415 0.661,0 0,-0.659 -0.661,0 0,0.659 z"
         id="path2062" /></clipPath><clipPath
       id="clipPath2076"><path
         d="m 528.016,165.326 0.66,0 0,-0.661 -0.66,0 0,0.661 z"
         id="path2078" /></clipPath><clipPath
       id="clipPath2092"><path
         d="m 519.022,166.355 1.414,0 0,-1.414 -1.414,0 0,1.414 z"
         id="path2094" /></clipPath><clipPath
       id="clipPath2108"><path
         d="m 521.557,165.519 0.66,0 0,-0.661 -0.66,0 0,0.661 z"
         id="path2110" /></clipPath><clipPath
       id="clipPath2124"><path
         d="m 520.404,163.637 0.66,0 0,-0.66 -0.66,0 0,0.66 z"
         id="path2126" /></clipPath><clipPath
       id="clipPath2140"><path
         d="m 529.18,161.123 1.414,0 0,-1.414 -1.414,0 0,1.414 z"
         id="path2142" /></clipPath><clipPath
       id="clipPath2156"><path
         d="m 528.902,162.854 0.661,0 0,-0.661 -0.661,0 0,0.661 z"
         id="path2158" /></clipPath><clipPath
       id="clipPath2172"><path
         d="m 531.108,162.767 0.661,0 0,-0.659 -0.661,0 0,0.659 z"
         id="path2174" /></clipPath><clipPath
       id="clipPath2188"><path
         d="m 511.959,156.345 1.414,0 0,-1.413 -1.414,0 0,1.413 z"
         id="path2190" /></clipPath><clipPath
       id="clipPath2204"><path
         d="m 514.23,157.1 0.66,0 0,-0.66 -0.66,0 0,0.66 z"
         id="path2206" /></clipPath><clipPath
       id="clipPath2220"><path
         d="m 514.665,154.937 0.66,0 0,-0.661 -0.66,0 0,0.661 z"
         id="path2222" /></clipPath><clipPath
       id="clipPath2236"><path
         d="m 517.105,159.239 1.415,0 0,-1.414 -1.415,0 0,1.414 z"
         id="path2238" /></clipPath><clipPath
       id="clipPath2252"><path
         d="m 516.154,157.1 0.66,0 0,-0.661 -0.66,0 0,0.661 z"
         id="path2254" /></clipPath><clipPath
       id="clipPath2268"><path
         d="m 514.936,158.938 0.659,0 0,-0.659 -0.659,0 0,0.659 z"
         id="path2270" /></clipPath><clipPath
       id="clipPath2284"><path
         d="m 528.166,153.106 1.414,0 0,-1.413 -1.414,0 0,1.413 z"
         id="path2286" /></clipPath><clipPath
       id="clipPath2300"><path
         d="m 526.391,153.215 0.658,0 0,-0.661 -0.658,0 0,0.661 z"
         id="path2302" /></clipPath><clipPath
       id="clipPath2316"><path
         d="m 527.564,155.084 0.659,0 0,-0.661 -0.659,0 0,0.661 z"
         id="path2318" /></clipPath><clipPath
       id="clipPath2332"><path
         d="m 538.445,155.356 1.413,0 0,-1.414 -1.413,0 0,1.414 z"
         id="path2334" /></clipPath><clipPath
       id="clipPath2348"><path
         d="m 539.601,157.045 0.659,0 0,-0.66 -0.659,0 0,0.66 z"
         id="path2350" /></clipPath><clipPath
       id="clipPath2364"><path
         d="m 541.289,155.624 0.659,0 0,-0.66 -0.659,0 0,0.66 z"
         id="path2366" /></clipPath><clipPath
       id="clipPath2380"><path
         d="m 506.111,169.753 19.825,0 0,-19.125 -19.825,0 0,19.125 z"
         id="path2382" /></clipPath><clipPath
       id="clipPath2400"><path
         d="m 548.755,122.654 1.179,0 0,-1.177 -1.179,0 0,1.177 z"
         id="path2402" /></clipPath><clipPath
       id="clipPath2416"><path
         d="m 548.912,120.51 0.549,0 0,-0.549 -0.549,0 0,0.549 z"
         id="path2418" /></clipPath><clipPath
       id="clipPath2432"><path
         d="m 547.237,121.268 0.549,0 0,-0.549 -0.549,0 0,0.549 z"
         id="path2434" /></clipPath><clipPath
       id="clipPath2448"><path
         d="m 539.748,122.124 1.177,0 0,-1.176 -1.177,0 0,1.176 z"
         id="path2450" /></clipPath><clipPath
       id="clipPath2464"><path
         d="m 541.86,121.429 0.549,0 0,-0.549 -0.549,0 0,0.549 z"
         id="path2466" /></clipPath><clipPath
       id="clipPath2480"><path
         d="m 540.899,119.861 0.55,0 0,-0.549 -0.55,0 0,0.549 z"
         id="path2482" /></clipPath><clipPath
       id="clipPath2496"><path
         d="m 548.207,117.768 1.177,0 0,-1.178 -1.177,0 0,1.178 z"
         id="path2498" /></clipPath><clipPath
       id="clipPath2512"><path
         d="m 547.976,119.208 0.548,0 0,-0.548 -0.548,0 0,0.548 z"
         id="path2514" /></clipPath><clipPath
       id="clipPath2528"><path
         d="m 549.812,119.138 0.55,0 0,-0.549 -0.55,0 0,0.549 z"
         id="path2530" /></clipPath><clipPath
       id="clipPath2544"><path
         d="m 533.866,113.79 1.178,0 0,-1.178 -1.178,0 0,1.178 z"
         id="path2546" /></clipPath><clipPath
       id="clipPath2560"><path
         d="m 535.758,114.418 0.55,0 0,-0.549 -0.55,0 0,0.549 z"
         id="path2562" /></clipPath><clipPath
       id="clipPath2576"><path
         d="m 536.121,112.617 0.548,0 0,-0.551 -0.548,0 0,0.551 z"
         id="path2578" /></clipPath><clipPath
       id="clipPath2592"><path
         d="m 538.152,116.199 1.177,0 0,-1.178 -1.177,0 0,1.178 z"
         id="path2594" /></clipPath><clipPath
       id="clipPath2608"><path
         d="m 537.36,114.417 0.549,0 0,-0.548 -0.549,0 0,0.548 z"
         id="path2610" /></clipPath><clipPath
       id="clipPath2624"><path
         d="m 536.346,115.95 0.548,0 0,-0.55 -0.548,0 0,0.55 z"
         id="path2626" /></clipPath><clipPath
       id="clipPath2640"><path
         d="m 547.362,111.093 1.178,0 0,-1.176 -1.178,0 0,1.176 z"
         id="path2642" /></clipPath><clipPath
       id="clipPath2656"><path
         d="m 545.883,111.182 0.549,0 0,-0.549 -0.549,0 0,0.549 z"
         id="path2658" /></clipPath><clipPath
       id="clipPath2672"><path
         d="m 546.86,112.738 0.551,0 0,-0.548 -0.551,0 0,0.548 z"
         id="path2674" /></clipPath><clipPath
       id="clipPath2688"><path
         d="m 555.923,112.967 1.175,0 0,-1.178 -1.175,0 0,1.178 z"
         id="path2690" /></clipPath><clipPath
       id="clipPath2704"><path
         d="m 556.883,114.373 0.551,0 0,-0.55 -0.551,0 0,0.55 z"
         id="path2706" /></clipPath><clipPath
       id="clipPath2720"><path
         d="m 558.289,113.188 0.55,0 0,-0.549 -0.55,0 0,0.549 z"
         id="path2722" /></clipPath><clipPath
       id="clipPath2736"><path
         d="m 528.238,124.955 17.268,0 0,-16.685 -17.268,0 0,16.685 z"
         id="path2738" /></clipPath><clipPath
       id="clipPath2756"><path
         d="m 235.88,126.035 68.971,0 0,-12.824 -68.971,0 0,12.824 z"
         id="path2758" /></clipPath><clipPath
       id="clipPath2780"><path
         d="m 251.762,134.281 36.717,0 0,-5.537 -36.717,0 0,5.537 z"
         id="path2782" /></clipPath><clipPath
       id="clipPath2796"><path
         d="m 269.921,177.375 18.534,0 0,-48.541 -18.534,0 0,48.541 z"
         id="path2798" /></clipPath><clipPath
       id="clipPath2820"><path
         d="m 650.62,170.966 41.68,0 0,-41.678 -41.68,0 0,41.678 z"
         id="path2822" /></clipPath><clipPath
       id="clipPath2836"><path
         d="m 655.028,146.992 11.3,0 0,-11.511 -11.3,0 0,11.511 z"
         id="path2838" /></clipPath><clipPath
       id="clipPath2856"><path
         d="m 661.048,145.883 6.28,0 0,-11.307 -6.28,0 0,11.307 z"
         id="path2858" /></clipPath></defs><g
     transform="matrix(1.25,0,0,-1.25,0,512)"
     id="g10"><g
       transform="translate(364.71173,26.563649)"
       id="g28799"><path
         d="m 700.3652,221.2812 c 0,-6.23 -17.908,-11.281 -40,-11.281 -22.092,0 -40,5.051 -40,11.281 0,6.23 17.908,11.279 40,11.279 22.092,0 40,-5.049 40,-11.279"
         id="path286"
         style="opacity:0.39999402;fill:#c7a687;fill-opacity:1;fill-rule:nonzero;stroke:none" /><path
         d="m 663.125,251.5205 c 0.023,0.113 23.818,21.194 23.818,25.479 l -26.578,0 -26.578,0 c 0,-4.285 23.797,-25.366 23.818,-25.479 0.309,-1.557 0.502,-3.062 0.532,-4.658 0.08,-4.285 0,-17.727 -0.114,-20.027 -0.076,-1.521 -0.328,-3.734 -1.863,-4.615 -1.703,-0.974 -3.308,-1.555 -5.099,-2.278 -1.559,-0.628 -2.868,-1.449 -0.479,-2.174 1.572,-0.473 5.783,-0.734 9.783,-0.748 4,0.014 8.211,0.275 9.783,0.748 2.391,0.725 1.081,1.546 -0.474,2.174 -1.795,0.723 -3.397,1.304 -5.102,2.278 -1.537,0.881 -1.789,3.094 -1.863,4.615 -0.113,2.3 -0.195,15.742 -0.113,20.027 0.029,1.596 0.222,3.101 0.529,4.658"
         id="path934"
         style="fill:#f0f4f5;fill-opacity:1;fill-rule:nonzero;stroke:none" /><path
         d="m 662.4375,254.0215 c 0.016,0.082 19.486,15.891 19.486,19.103 l -21.558,0 -21.559,0 c 0,-3.212 19.471,-19.021 19.488,-19.103 0.231,-1.168 3.911,-1.168 4.143,0"
         id="path938"
         style="fill:#f5d266;fill-opacity:1;fill-rule:nonzero;stroke:none" /><path
         d="m 669.7383,265.4834 c 0,-3.229 -2.619,-5.847 -5.85,-5.847 -3.23,0 -5.849,2.618 -5.849,5.847 0,3.229 2.619,5.849 5.849,5.849 3.231,0 5.85,-2.62 5.85,-5.849"
         id="path942"
         style="fill:#93a754;fill-opacity:1;fill-rule:nonzero;stroke:none" /></g><g
       transform="translate(364.71173,26.563649)"
       id="g28740"><path
         d="m 570.3652,331.2812 c 0,-6.23 -17.908,-11.281 -40,-11.281 -22.092,0 -40,5.051 -40,11.281 0,6.23 17.908,11.279 40,11.279 22.092,0 40,-5.049 40,-11.279"
         id="path142"
         style="opacity:0.39999402;fill:#c7a687;fill-opacity:1;fill-rule:nonzero;stroke:none" /><path
         d="m 544.1113,347.085 c 0,-1.553 -4.078,-7.461 -20.576,-7.461 -16.5,0 -20.576,5.908 -20.576,7.461 0,1.553 17.33,34.96 20.576,34.96 3.246,0 20.576,-33.407 20.576,-34.96"
         id="path946"
         style="fill:#d65454;fill-opacity:1;fill-rule:nonzero;stroke:none" /><path
         d="m 517.5957,380.5684 c 0,0 4.68,1.37 5.939,1.477 1.26,0.106 2.122,-5.8 -0.447,-6.602 -2.566,-0.799 -7.066,4.269 -5.492,5.125"
         id="path950"
         style="fill:#d65454;fill-opacity:1;fill-rule:nonzero;stroke:none" /><path
         d="m 523.5352,345.7104 c -11.23,0 -16.701,2.738 -19.055,4.975 -0.949,-1.987 -1.521,-3.32 -1.521,-3.6 0,-1.553 4.076,-7.462 20.576,-7.462 16.498,0 20.576,5.909 20.576,7.462 0,0.28 -0.574,1.613 -1.523,3.6 -2.354,-2.237 -7.824,-4.975 -19.053,-4.975"
         id="path954"
         style="fill:#839243;fill-opacity:1;fill-rule:nonzero;stroke:none" /><path
         d="m 525.1367,340.1416 c -0.127,-0.12 -0.039,-0.294 0.164,-0.492 15.024,0.405 18.811,5.939 18.811,7.435 0,0.002 -0.002,0.009 -0.002,0.011 l -7.471,-1.701 c 0,0 -10.998,-4.778 -11.502,-5.253"
         id="path970"
         style="opacity:0.19999701;fill:#93a754;fill-opacity:1;fill-rule:nonzero;stroke:none" /><path
         d="m 536.8887,349.2607 5.699,1.424 -0.265,-1.982 -5.684,-1.542 0.25,2.1 z"
         id="path974"
         style="fill:#839243;fill-opacity:1;fill-rule:nonzero;stroke:none" /><path
         d="m 538.4141,345.6606 c 0,-1.553 -4.078,-7.461 -20.578,-7.461 -16.5,0 -20.576,5.908 -20.576,7.461 0,1.553 17.332,34.96 20.576,34.96 3.246,0 20.578,-33.407 20.578,-34.96"
         id="path978"
         style="fill:#e96565;fill-opacity:1;fill-rule:nonzero;stroke:none" /><path
         d="m 517.8359,344.2861 c -11.229,0 -16.699,2.736 -19.053,4.975 -0.951,-1.987 -1.523,-3.32 -1.523,-3.6 0,-1.553 4.076,-7.462 20.576,-7.462 16.5,0 20.578,5.909 20.578,7.462 0,0.28 -0.574,1.613 -1.525,3.6 -2.352,-2.239 -7.823,-4.975 -19.053,-4.975"
         id="path982"
         style="fill:#93a754;fill-opacity:1;fill-rule:nonzero;stroke:none" /><path
         d="m 519.4453,366.4355 c 0,-1.098 -0.719,-1.986 -1.609,-1.986 -0.889,0 -1.608,0.888 -1.608,1.986 0,1.098 1.274,3.5 1.608,3.5 0.334,0 1.609,-2.402 1.609,-3.5"
         id="path986"
         style="fill:#535352;fill-opacity:1;fill-rule:nonzero;stroke:none" /><path
         d="m 519.4453,351.9395 c 0,-1.098 -0.719,-1.986 -1.609,-1.986 -0.889,0 -1.608,0.888 -1.608,1.986 0,1.098 1.274,3.5 1.608,3.5 0.334,0 1.609,-2.402 1.609,-3.5"
         id="path990"
         style="fill:#535352;fill-opacity:1;fill-rule:nonzero;stroke:none" /><path
         d="m 511.875,358.8677 c 0,-1.098 -0.719,-1.986 -1.607,-1.986 -0.889,0 -1.608,0.888 -1.608,1.986 0,1.095 1.276,3.5 1.608,3.5 0.334,0 1.607,-2.405 1.607,-3.5"
         id="path994"
         style="fill:#535352;fill-opacity:1;fill-rule:nonzero;stroke:none" /><path
         d="m 544.1094,347.0957 c -0.002,0.043 -0.018,0.113 -0.043,0.201 -0.008,0.028 -0.019,0.061 -0.029,0.091 -0.024,0.079 -0.057,0.167 -0.096,0.27 -0.016,0.042 -0.029,0.081 -0.047,0.126 -0.056,0.142 -0.121,0.299 -0.195,0.478 -0.033,0.076 -0.072,0.165 -0.11,0.25 -0.05,0.115 -0.101,0.233 -0.16,0.361 -0.049,0.111 -0.101,0.227 -0.156,0.347 -0.059,0.126 -0.119,0.261 -0.182,0.396 -0.066,0.142 -0.132,0.283 -0.203,0.434 -0.097,0.204 -0.195,0.413 -0.3,0.635 l -0.002,0 c -2.127,4.441 -6.166,12.166 -10.024,18.837 -4.547,-5.813 -13.162,-21.912 -16.648,-29.188 -0.123,-0.258 -0.241,-0.501 -0.35,-0.734 -0.035,-0.076 -0.066,-0.146 -0.101,-0.222 -0.092,-0.197 -0.18,-0.384 -0.26,-0.56 -0.039,-0.087 -0.076,-0.17 -0.114,-0.251 -0.048,-0.109 -0.089,-0.204 -0.134,-0.304 0.916,-0.042 1.875,-0.063 2.881,-0.063 6.302,0 10.787,0.862 13.929,2.014 2.451,0.387 4.453,0.939 6.076,1.568 0.006,0.002 0.01,0.004 0.016,0.006 0.227,0.088 0.445,0.177 0.656,0.268 0.016,0.007 0.03,0.011 0.045,0.018 0.203,0.089 0.399,0.176 0.59,0.266 0.022,0.01 0.041,0.019 0.063,0.03 0.181,0.087 0.357,0.174 0.529,0.264 0.025,0.013 0.051,0.025 0.076,0.039 0.162,0.085 0.32,0.172 0.473,0.259 0.027,0.015 0.056,0.03 0.084,0.048 0.146,0.085 0.287,0.17 0.425,0.255 0.03,0.017 0.059,0.037 0.088,0.054 0.131,0.085 0.258,0.168 0.379,0.25 0.03,0.022 0.061,0.042 0.09,0.064 0.117,0.08 0.229,0.161 0.336,0.242 0.031,0.023 0.063,0.047 0.092,0.071 0.103,0.079 0.203,0.157 0.297,0.236 0.031,0.024 0.06,0.048 0.09,0.073 0.089,0.077 0.177,0.153 0.259,0.227 0.03,0.028 0.059,0.055 0.086,0.081 0.08,0.074 0.157,0.146 0.227,0.217 0.029,0.029 0.056,0.057 0.084,0.085 0.066,0.07 0.133,0.137 0.193,0.205 0.029,0.031 0.053,0.061 0.08,0.092 0.057,0.065 0.112,0.128 0.162,0.192 0.028,0.032 0.049,0.063 0.075,0.095 0.046,0.059 0.093,0.12 0.134,0.177 0.026,0.034 0.045,0.065 0.069,0.098 0.037,0.056 0.076,0.11 0.109,0.165 0.022,0.033 0.039,0.066 0.061,0.1 0.029,0.048 0.06,0.098 0.086,0.146 0.019,0.037 0.035,0.07 0.052,0.105 0.022,0.043 0.045,0.087 0.065,0.128 0.017,0.039 0.029,0.074 0.045,0.109 0.013,0.037 0.031,0.072 0.043,0.107 0.015,0.039 0.025,0.076 0.035,0.113 0.01,0.029 0.019,0.059 0.027,0.085 0.01,0.041 0.018,0.078 0.024,0.115 0.003,0.02 0.009,0.044 0.013,0.063 0.006,0.055 0.012,0.107 0.012,0.155 0,0.002 -0.002,0.009 -0.002,0.011"
         id="path1010"
         style="opacity:0.5;fill:#bbbbba;fill-opacity:1;fill-rule:nonzero;stroke:none" /><path
         d="m 563.4707,335.9272 c 0,-1.55 -4.078,-7.461 -20.576,-7.461 -16.5,0 -20.576,5.911 -20.576,7.461 0,1.553 17.33,34.96 20.576,34.96 3.246,0 20.576,-33.407 20.576,-34.96"
         id="path1014"
         style="fill:#d65454;fill-opacity:1;fill-rule:nonzero;stroke:none" /><path
         d="m 536.957,369.4131 c 0,0 4.678,1.368 5.937,1.475 1.262,0.108 2.124,-5.798 -0.447,-6.6 -2.566,-0.801 -7.066,4.267 -5.49,5.125"
         id="path1018"
         style="fill:#d65454;fill-opacity:1;fill-rule:nonzero;stroke:none" /><path
         d="m 542.8945,334.5532 c -11.229,0 -16.701,2.738 -19.053,4.974 -0.951,-1.986 -1.523,-3.319 -1.523,-3.6 0,-1.55 4.076,-7.461 20.576,-7.461 16.498,0 20.576,5.911 20.576,7.461 0,0.281 -0.572,1.614 -1.525,3.6 -2.352,-2.236 -7.822,-4.974 -19.051,-4.974"
         id="path1022"
         style="fill:#839243;fill-opacity:1;fill-rule:nonzero;stroke:none" /><path
         d="m 544.4961,328.9844 c -0.127,-0.118 -0.039,-0.294 0.162,-0.492 15.026,0.405 18.813,5.941 18.813,7.435 0,0.002 -0.002,0.009 -0.002,0.011 l -7.473,-1.701 c 0,0 -10.994,-4.778 -11.5,-5.253"
         id="path1038"
         style="opacity:0.19999701;fill:#93a754;fill-opacity:1;fill-rule:nonzero;stroke:none" /><path
         d="m 556.248,338.103 5.697,1.424 -0.263,-1.979 -5.686,-1.544 0.252,2.099 z"
         id="path1042"
         style="fill:#839243;fill-opacity:1;fill-rule:nonzero;stroke:none" /><path
         d="m 557.7715,334.5029 c 0,-1.551 -4.076,-7.461 -20.576,-7.461 -16.5,0 -20.576,5.91 -20.576,7.461 0,1.553 17.332,34.96 20.576,34.96 3.246,0 20.576,-33.407 20.576,-34.96"
         id="path1046"
         style="fill:#e96565;fill-opacity:1;fill-rule:nonzero;stroke:none" /><path
         d="m 537.1953,333.1289 c -11.229,0 -16.699,2.737 -19.053,4.974 -0.951,-1.986 -1.523,-3.317 -1.523,-3.6 0,-1.551 4.076,-7.461 20.576,-7.461 16.5,0 20.576,5.91 20.576,7.461 0,0.283 -0.572,1.614 -1.523,3.6 -2.352,-2.237 -7.823,-4.974 -19.053,-4.974"
         id="path1050"
         style="fill:#93a754;fill-opacity:1;fill-rule:nonzero;stroke:none" /><path
         d="m 538.8047,355.2783 c 0,-1.096 -0.721,-1.986 -1.609,-1.986 -0.889,0 -1.608,0.89 -1.608,1.986 0,1.098 1.274,3.5 1.608,3.5 0.334,0 1.609,-2.402 1.609,-3.5"
         id="path1054"
         style="fill:#535352;fill-opacity:1;fill-rule:nonzero;stroke:none" /><path
         d="m 531.2344,346.5947 c 0,-1.098 -0.719,-1.986 -1.607,-1.986 -0.889,0 -1.61,0.888 -1.61,1.986 0,1.098 1.276,3.502 1.61,3.502 0.332,0 1.607,-2.404 1.607,-3.502"
         id="path1058"
         style="fill:#535352;fill-opacity:1;fill-rule:nonzero;stroke:none" /><path
         d="m 545.041,342.5874 c 0,-1.095 -0.721,-1.986 -1.609,-1.986 -0.889,0 -1.608,0.891 -1.608,1.986 0,1.098 1.276,3.502 1.608,3.502 0.334,0 1.609,-2.404 1.609,-3.502"
         id="path1062"
         style="fill:#535352;fill-opacity:1;fill-rule:nonzero;stroke:none" /></g><g
       transform="translate(364.71173,26.563649)"
       id="g28833"><path
         d="m 180.3652,221.2812 c 0,-6.23 -17.908,-11.281 -40,-11.281 -22.092,0 -40,5.051 -40,11.281 0,6.23 17.908,11.279 40,11.279 22.092,0 40,-5.049 40,-11.279"
         id="path270"
         style="opacity:0.39999402;fill:#c7a687;fill-opacity:1;fill-rule:nonzero;stroke:none" /><path
         d="m 162.2881,249.9014 c 0,0 -27.56,-5.412 -33.375,-6.939 -5.813,-1.526 -8.054,-2.114 -10.925,-7.61 -2.873,-5.496 -7.516,-13.347 -7.164,-16.334 0.35,-2.984 4.631,-2.556 5.145,0.821 0.514,3.376 0.607,17.91 10.232,19.589 9.626,1.68 34.963,6.487 37.596,7.034 2.632,0.548 1.418,3.652 -1.509,3.439"
         id="path1066"
         style="fill:#494848;fill-opacity:1;fill-rule:nonzero;stroke:none" /><path
         d="m 118.4424,249.9014 c 0,0 27.56,-5.412 33.375,-6.939 5.813,-1.526 8.054,-2.114 10.925,-7.61 2.873,-5.496 7.516,-13.347 7.164,-16.334 -0.35,-2.984 -4.631,-2.556 -5.145,0.821 -0.514,3.376 -0.607,17.91 -10.232,19.589 -9.626,1.68 -34.963,6.487 -37.596,7.034 -2.632,0.548 -1.418,3.652 1.509,3.439"
         id="path1070"
         style="fill:#494848;fill-opacity:1;fill-rule:nonzero;stroke:none" /><path
         d="m 122.6299,225.8291 c -5.232,0 -11.527,3.242 -14.108,8.998 -2.582,5.754 -1.876,7.795 -2.921,8.58 -1.047,0.785 -2.303,0.602 -2.408,2.067 -0.105,1.464 -0.052,3.138 0.811,3.584 0.864,0.445 10.777,5.755 18.626,5.337 7.848,-0.42 10.725,-3.701 11.562,-5.13 0.837,-1.428 0.889,-4.026 1.804,-4.995 0.916,-0.968 1.309,-1.125 1.23,-2.851 -0.078,-1.727 -1.918,-15.59 -14.596,-15.59"
         id="path1074"
         style="fill:#4e4e4e;fill-opacity:1;fill-rule:nonzero;stroke:none" /><path
         d="m 158.1016,225.8291 c 5.23,0 11.527,3.244 14.107,8.998 2.582,5.756 1.876,7.795 2.922,8.58 1.046,0.785 2.302,0.602 2.407,2.067 0.104,1.464 0.051,3.138 -0.811,3.584 -0.864,0.445 -10.776,5.755 -18.625,5.335 -7.849,-0.418 -10.726,-3.699 -11.563,-5.128 -0.836,-1.428 -0.889,-4.026 -1.804,-4.995 -0.916,-0.968 -1.309,-1.125 -1.231,-2.851 0.079,-1.727 1.919,-15.59 14.598,-15.59"
         id="path1078"
         style="fill:#4e4e4e;fill-opacity:1;fill-rule:nonzero;stroke:none" /><path
         d="m 148.4229,248.7178 c -2.564,3.086 -8.058,2.852 -8.058,2.852 0,0 -5.492,0.236 -8.056,-2.852 -2.564,-3.088 2.01,-7.248 2.354,-4.762 0,0 1.021,3.637 5.702,3.637 4.683,0 5.704,-3.635 5.704,-3.635 0.343,-2.488 4.917,1.674 2.354,4.76"
         id="path1082"
         style="fill:#4e4e4e;fill-opacity:1;fill-rule:nonzero;stroke:none" /><path
         d="m 113.125,233.4307 c 0.142,-0.752 -4.7,4.264 -2.659,10.961 1.839,6.037 9.109,6.953 11.483,7.143 4.604,0.365 7.109,-1.831 5.787,-1.78 -2.046,0.078 -9.449,-0.785 -12.745,-5.258 -3.296,-4.472 -2.058,-10.046 -1.866,-11.066"
         id="path1098"
         style="opacity:0.60000598;fill:#535352;fill-opacity:1;fill-rule:nonzero;stroke:none" /><path
         d="m 150.2705,233.4307 c 0.143,-0.75 -4.7,4.264 -2.659,10.961 1.839,6.037 9.11,6.953 11.483,7.141 4.606,0.367 7.11,-1.829 5.787,-1.778 -2.046,0.078 -9.449,-0.785 -12.745,-5.26 -3.296,-4.472 -2.058,-10.044 -1.866,-11.064"
         id="path1114"
         style="opacity:0.60000598;fill:#535352;fill-opacity:1;fill-rule:nonzero;stroke:none" /></g><g
       transform="translate(364.71173,26.563649)"
       id="g28814"><path
         d="m 440.3652,221.2812 c 0,-6.23 -17.908,-11.281 -40,-11.281 -22.092,0 -40,5.051 -40,11.281 0,6.23 17.908,11.279 40,11.279 22.092,0 40,-5.049 40,-11.279"
         id="path238"
         style="opacity:0.39999402;fill:#c7a687;fill-opacity:1;fill-rule:nonzero;stroke:none" /><path
         d="m 371.3765,275.7187 c -1.857,-1.855 -1.486,-21.789 11.297,-32.586 15.824,-13.369 26.412,-19.674 32.729,-23.572 7.435,-4.586 9.258,-2.033 11.721,0.412 2.443,2.461 4.998,4.285 0.412,11.721 -3.899,6.316 -10.205,16.904 -23.573,32.728 -10.799,12.783 -30.731,13.154 -32.586,11.297"
         id="path1118"
         style="fill:#6492c2;fill-opacity:1;fill-rule:nonzero;stroke:none" /><path
         d="m 429.8672,228.6309 c 0,0 0.533,-2.115 0.189,-4.049 -0.343,-1.935 -2.734,-0.326 -2.765,1.065 -0.031,1.39 2.215,4.263 2.576,2.984"
         id="path1122"
         style="fill:#6492c2;fill-opacity:1;fill-rule:nonzero;stroke:none" /><path
         d="m 371.3765,277.7187 c -1.857,-1.855 -1.486,-21.787 11.297,-32.586 15.824,-13.369 26.412,-19.674 32.729,-23.574 7.435,-4.584 9.258,-2.029 11.721,0.414 2.443,2.461 4.998,4.285 0.412,11.721 -3.899,6.316 -10.205,16.904 -23.573,32.728 -10.798,12.783 -30.731,13.154 -32.586,11.297"
         id="path1126"
         style="fill:#709ecb;fill-opacity:1;fill-rule:nonzero;stroke:none" /><path
         d="m 371.3765,277.7187 c -0.593,-0.594 -0.956,-3.035 -0.763,-6.428 4.301,-5.25 9.416,-10.937 15.183,-16.461 17.416,-16.681 29.638,-27.759 38.21,-35.4 1.212,0.543 2.115,1.549 3.117,2.543 0.995,1.002 1.999,1.904 2.542,3.115 -7.641,8.574 -18.718,20.797 -35.399,38.211 -5.524,5.768 -11.211,10.883 -16.46,15.184 -3.395,0.193 -5.837,-0.17 -6.43,-0.764"
         id="path1130"
         style="fill:#f5d266;fill-opacity:1;fill-rule:nonzero;stroke:none" /><path
         d="m 429.8369,223.5293 c -0.103,0.99 -0.172,1.559 -0.172,1.559 0,0 -1.547,-2.114 -2.542,-3.116 -1.002,-0.994 -3.116,-2.543 -3.116,-2.543 0,0 0.055,-0.716 0.122,-1.943 1.151,0.553 2.025,1.525 2.994,2.486 1.111,1.119 2.238,2.114 2.714,3.557"
         id="path1134"
         style="fill:#f0c046;fill-opacity:1;fill-rule:nonzero;stroke:none" /></g><g
       transform="matrix(5,0,0,5,-1794.6856,-1562.8677)"
       id="g28731"><path
         d="m 440.3652,331.2812 c 0,-6.23 -17.908,-11.281 -40,-11.281 -22.092,0 -40,5.051 -40,11.281 0,6.23 17.908,11.279 40,11.279 22.092,0 40,-5.049 40,-11.279"
         id="path158"
         style="opacity:0.39999402;fill:#c7a687;fill-opacity:1;fill-rule:nonzero;stroke:none" /><path
         d="m 400.3501,384.3486 c -4.77,-0.047 -7.126,-0.687 -8.106,-2.209 -0.404,-0.693 -0.974,-4.572 -0.968,-11 -0.006,-6.43 0.564,-10.307 0.972,-11.008 0.974,-1.513 3.328,-2.154 8.118,-2.201 4.79,0.047 7.144,0.688 8.122,2.207 0.403,0.695 0.973,4.572 0.967,11 0.006,6.43 -0.564,10.309 -0.973,11.01 -0.974,1.514 -3.332,2.154 -8.132,2.201 m 0.016,-29.684 -0.016,0 c -4.121,0.041 -8.698,0.364 -10.85,3.705 -1.353,2.1 -1.492,9.629 -1.488,12.77 -0.004,3.139 0.135,10.668 1.487,12.77 2.153,3.339 6.73,3.662 10.851,3.703 4.154,-0.041 8.73,-0.364 10.882,-3.703 1.35,-2.102 1.491,-9.631 1.489,-12.772 0.002,-3.139 -0.139,-10.668 -1.489,-12.768 -2.152,-3.341 -6.728,-3.664 -10.851,-3.705 l -0.015,0 z"
         id="path1138"
         style="fill:#4e4e4e;fill-opacity:1;fill-rule:nonzero;stroke:none" /><path
         d="m 430.8164,374.0029 c -4.973,4.299 -15.818,4.381 -30.451,4.463 -14.631,-0.082 -25.477,-0.164 -30.45,-4.463 -2.601,-2.248 -3.14,-11.684 -3.124,-21.225 -0.016,-9.541 0.523,-18.978 3.124,-21.226 4.973,-4.297 15.819,-4.381 30.45,-4.463 14.633,0.082 25.478,0.166 30.451,4.463 2.602,2.248 3.139,11.685 3.123,21.226 0.016,9.541 -0.521,18.977 -3.123,21.225"
         id="path1142"
         style="fill:#9f826c;fill-opacity:1;fill-rule:nonzero;stroke:none" /><path
         d="m 379.0317,328.0732 c 1.97,-0.314 4.149,-0.525 6.529,-0.666 l 0,50.74 c -2.38,-0.14 -4.559,-0.349 -6.529,-0.666 l 0,-49.408 z"
         id="path1146"
         style="fill:#f0e0c6;fill-opacity:1;fill-rule:nonzero;stroke:none" /><path
         d="m 415.1719,327.4072 c 2.379,0.141 4.559,0.352 6.527,0.666 l 0,49.408 c -1.968,0.317 -4.148,0.526 -6.527,0.666 l 0,-50.74 z"
         id="path1150"
         style="fill:#f0e0c6;fill-opacity:1;fill-rule:nonzero;stroke:none" /><path
         d="m 430.7988,334.5518 c -4.971,-4.299 -15.814,-4.381 -30.442,-4.463 -14.627,0.082 -25.471,0.164 -30.441,4.463 -2.465,2.129 -3.076,10.711 -3.12,19.719 -0.003,-0.498 -0.005,-0.998 -0.003,-1.5 -0.017,-9.539 0.521,-18.971 3.123,-21.219 4.97,-4.299 15.814,-4.381 30.441,-4.463 14.628,0.082 25.471,0.164 30.442,4.463 2.602,2.248 3.141,11.68 3.123,21.219 0.002,0.502 0,1.002 -0.002,1.5 -0.045,-9.008 -0.656,-17.59 -3.121,-19.719"
         id="path1166"
         style="opacity:0.19999701;fill:#4e4e4e;fill-opacity:1;fill-rule:nonzero;stroke:none" /><path
         d="m 369.9155,370.9912 c 4.971,4.297 15.814,4.381 30.441,4.461 14.628,-0.08 25.472,-0.164 30.442,-4.461 2.465,-2.131 3.076,-10.711 3.121,-19.721 0.002,0.5 0.004,1 0.002,1.5 0.018,9.539 -0.521,18.973 -3.123,21.221 -4.97,4.297 -15.814,4.381 -30.442,4.461 -14.627,-0.08 -25.47,-0.164 -30.441,-4.461 -2.602,-2.248 -3.14,-11.682 -3.123,-21.221 -0.002,-0.5 0,-1 0.003,-1.5 0.044,9.01 0.655,17.59 3.12,19.721"
         id="path1182"
         style="opacity:0.19999701;fill:#4e4e4e;fill-opacity:1;fill-rule:nonzero;stroke:none" /></g><g
       transform="translate(364.71173,26.563649)"
       id="g28676"><path
         d="m 700.3652,441.2812 c 0,-6.23 -17.908,-11.281 -40,-11.281 -22.092,0 -40,5.051 -40,11.281 0,6.23 17.908,11.279 40,11.279 22.092,0 40,-5.049 40,-11.279"
         id="path366"
         style="opacity:0.39999402;fill:#c7a687;fill-opacity:1;fill-rule:nonzero;stroke:none" /><path
         d="m 677.251,463.3809 c -1.684,-1.682 -1.684,-4.408 0,-6.09 1.68,-1.681 4.406,-1.681 6.088,0 l 8.072,8.072 c 1.682,1.682 1.682,4.409 0,6.09 -1.681,1.682 -4.408,1.682 -6.09,0 l -8.07,-8.072 z"
         id="path1186"
         style="fill:#ccd0cf;fill-opacity:1;fill-rule:nonzero;stroke:none" /><path
         d="m 684.6299,470.7617 -7.379,-7.381 c -1.684,-1.682 -1.684,-4.408 0,-6.09 1.68,-1.681 4.406,-1.681 6.088,0 l 3.871,3.871 c -0.842,3.131 -1.742,6.487 -2.58,9.6"
         id="path1202"
         style="opacity:0.60000598;fill:#ccd0cf;fill-opacity:1;fill-rule:nonzero;stroke:none" /><path
         d="m 679.6904,480.7402 c 0.887,-3.291 8.529,-31.674 9.045,-33.664 0.547,-2.115 0.443,-3.223 -1.715,-5.145 -2.158,-1.921 -2.898,-0.738 -4.391,1.317 -1.044,1.437 -15.472,21.01 -17.148,23.281 l 14.209,14.211 z"
         id="path1206"
         style="fill:#f0f4f5;fill-opacity:1;fill-rule:nonzero;stroke:none" /><path
         d="m 687.7295,442.6426 c 0.061,0.051 0.111,0.102 0.168,0.152 -0.246,-0.271 -0.533,-0.556 -0.877,-0.863 -2.158,-1.922 -2.898,-0.738 -4.391,1.316 -1.045,1.438 -15.472,21.01 -17.148,23.282 l 0.709,0.711 c 1.676,-2.274 16.103,-21.846 17.148,-23.284 1.495,-2.054 2.233,-3.236 4.391,-1.314"
         id="path1222"
         style="opacity:0.60000598;fill:#ccd0cf;fill-opacity:1;fill-rule:nonzero;stroke:none" /><path
         d="m 685.6025,441.9316 c 2.158,1.922 2.262,3.031 1.715,5.145 -0.479,1.845 -7.07,26.332 -8.744,32.546 l 1.117,1.118 c 0.887,-3.291 8.529,-31.674 9.045,-33.664 0.547,-2.116 0.443,-3.223 -1.715,-5.145 -1.129,-1.004 -1.869,-1.156 -2.531,-0.781 0.328,0.156 0.693,0.408 1.113,0.781"
         id="path1238"
         style="fill:#ccd0cf;fill-opacity:1;fill-rule:nonzero;stroke:none" /><path
         d="m 680.5869,477.4199 c -0.436,1.611 -0.752,2.791 -0.896,3.32 l -14.209,-14.211 c 0.214,-0.289 0.634,-0.859 1.207,-1.636 4.765,4.298 9.73,8.793 13.898,12.527"
         id="path1254"
         style="opacity:0.60000598;fill:#ccd0cf;fill-opacity:1;fill-rule:nonzero;stroke:none" /><path
         d="m 654.6904,485.9395 c -1.682,-1.682 -4.408,-1.682 -6.09,0 -1.681,1.682 -1.681,4.408 0,6.09 l 8.07,8.072 c 1.684,1.682 4.411,1.682 6.092,0 1.682,-1.682 1.682,-4.408 0,-6.09 l -8.072,-8.072 z"
         id="path1258"
         style="fill:#ccd0cf;fill-opacity:1;fill-rule:nonzero;stroke:none" /><path
         d="m 652.4717,495.9023 -3.871,-3.873 c -1.682,-1.682 -1.682,-4.408 0,-6.09 1.682,-1.682 4.408,-1.682 6.09,0 l 7.381,7.381 c -3.114,0.838 -6.469,1.74 -9.6,2.582"
         id="path1274"
         style="opacity:0.60000598;fill:#ccd0cf;fill-opacity:1;fill-rule:nonzero;stroke:none" /><path
         d="m 672.0498,488.3828 c -3.291,0.887 -31.673,8.527 -33.664,9.043 -2.114,0.547 -3.223,0.443 -5.145,-1.715 -1.921,-2.158 -0.739,-2.896 1.317,-4.39 1.438,-1.045 21.01,-15.473 23.282,-17.149 l 14.21,14.211 z"
         id="path1278"
         style="fill:#f0f4f5;fill-opacity:1;fill-rule:nonzero;stroke:none" /><path
         d="m 633.9502,496.4219 c 0.053,0.059 0.104,0.109 0.154,0.166 -0.272,-0.246 -0.556,-0.531 -0.863,-0.877 -1.922,-2.158 -0.739,-2.896 1.316,-4.391 1.439,-1.044 21.01,-15.472 23.283,-17.148 l 0.709,0.709 c -2.271,1.676 -21.843,16.104 -23.283,17.148 -2.054,1.495 -3.238,2.235 -1.316,4.393"
         id="path1294"
         style="opacity:0.60000598;fill:#ccd0cf;fill-opacity:1;fill-rule:nonzero;stroke:none" /><path
         d="m 633.2412,494.293 c 1.922,2.158 3.03,2.262 5.145,1.715 1.843,-0.477 26.332,-7.07 32.544,-8.744 l 1.12,1.119 c -3.291,0.887 -31.673,8.527 -33.664,9.043 -2.115,0.547 -3.223,0.443 -5.145,-1.715 -1.005,-1.127 -1.155,-1.867 -0.781,-2.531 0.154,0.328 0.408,0.693 0.781,1.113"
         id="path1310"
         style="fill:#ccd0cf;fill-opacity:1;fill-rule:nonzero;stroke:none" /><path
         d="m 657.8398,474.1719 14.21,14.211 c -0.529,0.143 -1.709,0.461 -3.322,0.894 -3.733,-4.166 -8.227,-9.13 -12.526,-13.898 0.778,-0.572 1.348,-0.992 1.638,-1.207"
         id="path1326"
         style="opacity:0.60000598;fill:#ccd0cf;fill-opacity:1;fill-rule:nonzero;stroke:none" /><path
         d="m 647.6689,462.7168 c 0,0 -13.201,1.818 -15.314,2.07 -2.114,0.25 -3.619,0.793 -6.28,-1.511 -0.809,-0.7 15.334,-11.342 15.334,-11.342 l 6.26,10.783 z"
         id="path1330"
         style="fill:#ccd0cf;fill-opacity:1;fill-rule:nonzero;stroke:none" /><path
         d="m 647.6689,462.7168 c 0,0 -0.992,0.137 -2.473,0.34 -2.472,-2.826 -4.199,-4.875 -4.644,-5.598 -0.719,-1.166 -1.436,-2.402 -2.041,-3.592 1.709,-1.15 2.898,-1.933 2.898,-1.933 l 6.26,10.783 z"
         id="path1346"
         style="opacity:0.60000598;fill:#ccd0cf;fill-opacity:1;fill-rule:nonzero;stroke:none" /><path
         d="m 654.0244,456.3613 c 0,0 1.82,-13.203 2.07,-15.316 0.252,-2.114 0.795,-3.618 -1.509,-6.28 -0.7,-0.808 -11.344,15.334 -11.344,15.334 l 10.783,6.262 z"
         id="path1350"
         style="fill:#ccd0cf;fill-opacity:1;fill-rule:nonzero;stroke:none" /><path
         d="m 645.1768,447.2031 c 1.187,0.605 2.426,1.322 3.592,2.041 0.721,0.445 2.771,2.17 5.596,4.645 -0.202,1.478 -0.34,2.472 -0.34,2.472 l -10.784,-6.262 c 0,0 0.784,-1.187 1.936,-2.896"
         id="path1366"
         style="opacity:0.60000598;fill:#ccd0cf;fill-opacity:1;fill-rule:nonzero;stroke:none" /><path
         d="m 694.2744,502.9648 c -0.932,0.932 -10.932,0.746 -16.352,-5.668 -6.705,-7.939 -33.285,-36.668 -35.242,-39.838 -2.301,-3.73 -4.567,-8.191 -3.34,-9.428 1.235,-1.226 5.699,1.041 9.429,3.342 3.169,1.955 31.898,28.535 39.837,35.242 6.414,5.418 6.6,15.418 5.668,16.35"
         id="path1370"
         style="fill:#f0f4f5;fill-opacity:1;fill-rule:nonzero;stroke:none" /><path
         d="m 677.8818,497.2461 c 5.578,4.715 13.779,4.785 14.619,3.945 0.838,-0.84 0.77,-9.039 -3.943,-14.617 0.015,0.014 0.031,0.027 0.049,0.041 6.414,5.418 6.599,15.418 5.668,16.35 -0.932,0.931 -10.932,0.746 -16.352,-5.668 -0.012,-0.016 -0.027,-0.033 -0.041,-0.051"
         id="path1386"
         style="fill:#f0f4f5;fill-opacity:1;fill-rule:nonzero;stroke:none" /><path
         d="m 690.1748,498.8672 c -0.562,0.564 -6.617,0.451 -9.896,-3.432 -4.061,-4.806 -30.085,-32.131 -31.27,-34.05 -1.393,-2.258 -2.766,-4.959 -2.023,-5.707 0.748,-0.743 3.451,0.63 5.71,2.023 1.916,1.184 29.243,27.207 34.049,31.268 3.883,3.279 3.994,9.334 3.43,9.898"
         id="path1402"
         style="fill:#f0f4f5;fill-opacity:1;fill-rule:nonzero;stroke:none" /></g><g
       transform="translate(364.71173,26.563649)"
       id="g28822"><path
         d="m 310.3652,221.2812 c 0,-6.23 -17.908,-11.281 -40,-11.281 -22.092,0 -40,5.051 -40,11.281 0,6.23 17.908,11.279 40,11.279 22.092,0 40,-5.049 40,-11.279"
         id="path254"
         style="opacity:0.39999402;fill:#c7a687;fill-opacity:1;fill-rule:nonzero;stroke:none" /><path
         d="m 259.5225,258.5703 c 1.352,1.352 2.977,10.02 17.344,-4.35 14.369,-14.367 5.701,-15.992 4.349,-17.341 -1.353,-1.354 -38.463,-22.424 -41.289,-19.598 -2.826,2.826 18.244,39.937 19.596,41.289"
         id="path1406"
         style="fill:#e0ae66;fill-opacity:1;fill-rule:nonzero;stroke:none" /><path
         d="m 276.8662,254.2207 c -14.367,14.369 -15.992,5.701 -17.344,4.35 -0.095,-0.096 -0.291,-0.373 -0.566,-0.799 0.83,-4.617 3.803,-9.24 8.01,-13.449 4.209,-4.209 8.832,-7.18 13.451,-8.012 0.426,0.275 0.703,0.473 0.799,0.568 1.351,1.35 10.019,2.975 -4.35,17.342"
         id="path1422"
         style="opacity:0.19999701;fill:#e0ae66;fill-opacity:1;fill-rule:nonzero;stroke:none" /><path
         d="m 266.7275,238.7012 c 0.01,0.627 0.016,1.275 0.016,1.939 0,0.588 -0.006,1.163 -0.014,1.725 1.365,0.043 2.598,0.109 3.621,0.195 -0.021,-0.611 -0.033,-1.254 -0.033,-1.922 0,-0.718 0.014,-1.412 0.039,-2.066 -1.094,0.057 -2.315,0.1 -3.629,0.129 m -1.514,-5.232 c -1.189,0.064 -2.541,0.109 -3.994,0.13 0.053,1.02 0.094,2.149 0.121,3.362 0.635,-0.006 1.282,-0.012 1.946,-0.012 0.587,0 1.164,0.004 1.73,0.01 0.045,-1.317 0.111,-2.504 0.197,-3.49 m -4.918,-4.815 c -1.129,0.129 -2.609,0.223 -4.291,0.268 0.069,0.855 0.125,1.849 0.168,2.943 0.971,-0.023 1.994,-0.037 3.057,-0.037 0.215,0 0.426,0.002 0.637,0.004 0.117,-1.559 0.265,-2.682 0.429,-3.178 m -6.488,0.297 c -0.775,0 -1.525,-0.01 -2.24,-0.029 0.019,0.715 0.029,1.465 0.029,2.24 0,0.31 -0.002,0.617 -0.004,0.92 0.862,-0.068 1.865,-0.125 2.967,-0.168 0.043,-1.102 0.1,-2.106 0.168,-2.967 -0.303,0.002 -0.609,0.004 -0.92,0.004 m -3.596,-5.086 c -0.47,0.02 -0.953,0.031 -1.461,0.031 -0.806,0 -1.576,-0.025 -2.277,-0.068 0.043,0.701 0.068,1.471 0.068,2.277 0,0.508 -0.011,0.991 -0.031,1.461 0.846,-0.131 2.018,-0.236 3.395,-0.306 0.07,-1.377 0.176,-2.549 0.306,-3.395 m 1.088,13.787 c 0.496,-0.166 1.619,-0.314 3.176,-0.431 0,-0.211 -0.002,-0.42 -0.002,-0.637 0,-1.063 0.014,-2.086 0.035,-3.057 -1.092,-0.043 -2.086,-0.099 -2.941,-0.168 -0.045,1.682 -0.139,3.162 -0.268,4.293 m 8.336,-0.662 c 0.028,-1.221 0.069,-2.353 0.121,-3.377 -0.177,0 -0.349,0.002 -0.527,0.002 -1.043,0 -2.049,-0.014 -3.004,-0.035 0.022,0.955 0.035,1.961 0.035,3.004 0,0.178 -0.002,0.351 -0.002,0.527 1.024,-0.053 2.156,-0.094 3.377,-0.121 m -3.521,5.58 c 0.986,-0.086 2.174,-0.154 3.49,-0.197 -0.006,-0.568 -0.01,-1.143 -0.01,-1.733 0,-0.664 0.006,-1.31 0.012,-1.945 -1.215,-0.027 -2.342,-0.068 -3.361,-0.121 -0.022,1.453 -0.067,2.805 -0.131,3.996 m 8.842,-1.93 c 0,-0.654 0.005,-1.293 0.015,-1.914 -0.553,0.006 -1.113,0.01 -1.685,0.01 -0.655,0 -1.291,-0.004 -1.916,-0.012 0.007,0.625 0.011,1.262 0.011,1.916 0,0.575 -0.004,1.135 -0.009,1.686 0.619,-0.01 1.257,-0.016 1.912,-0.016 0.576,0 1.136,0.006 1.685,0.014 -0.008,-0.549 -0.013,-1.109 -0.013,-1.684 m -3.739,7.071 c 0.655,-0.026 1.348,-0.039 2.067,-0.039 0.666,0 1.308,0.013 1.922,0.035 -0.086,-1.026 -0.155,-2.258 -0.198,-3.623 -0.56,0.008 -1.135,0.013 -1.722,0.013 -0.664,0 -1.313,-0.005 -1.942,-0.015 -0.027,1.314 -0.07,2.537 -0.127,3.629 m 10.778,-10.498 c 2.201,0.162 3.562,0.384 3.562,0.629 0.002,0.244 -1.334,0.463 -3.496,0.625 0.029,0.685 0.043,1.414 0.043,2.173 0,0.735 -0.014,1.444 -0.039,2.11 0.898,0.135 1.422,0.289 1.422,0.453 0,0.17 -0.543,0.326 -1.467,0.461 -0.145,2.418 -0.451,4.096 -0.811,4.096 -0.347,0 -0.648,-1.596 -0.796,-3.916 -1.045,0.087 -2.315,0.158 -3.723,0.201 -0.043,1.41 -0.113,2.677 -0.203,3.724 2.322,0.147 3.918,0.448 3.918,0.797 0,0.358 -1.678,0.664 -4.096,0.809 -0.135,0.926 -0.291,1.467 -0.461,1.467 -0.164,0 -0.32,-0.524 -0.453,-1.422 -0.666,0.025 -1.375,0.041 -2.111,0.041 -0.758,-0.002 -1.487,-0.016 -2.172,-0.043 -0.162,2.16 -0.381,3.496 -0.625,3.496 -0.244,0 -0.467,-1.361 -0.629,-3.565 -2.201,-0.152 -3.695,-0.445 -3.695,-0.783 0,-0.334 1.451,-0.623 3.599,-0.775 -0.058,-1.125 -0.103,-2.389 -0.133,-3.752 -1.361,-0.047 -2.586,-0.117 -3.595,-0.205 -0.164,2.256 -0.403,3.685 -0.668,3.685 -0.272,0 -0.514,-1.49 -0.678,-3.834 -1.014,-0.138 -1.607,-0.304 -1.607,-0.48 0,-0.174 0.572,-0.336 1.546,-0.473 -0.07,-1.258 -0.119,-2.707 -0.14,-4.265 -1.606,-0.121 -2.756,-0.274 -3.231,-0.446 -0.152,1.178 -0.343,1.887 -0.552,1.887 -0.424,0 -0.776,-2.873 -0.87,-6.73 -0.972,-0.133 -1.543,-0.289 -1.543,-0.456 0,-0.167 0.563,-0.322 1.526,-0.455 -0.004,-0.363 -0.008,-0.73 -0.008,-1.105 0,-0.801 0.012,-1.572 0.033,-2.309 -1.381,-0.07 -2.547,-0.179 -3.383,-0.31 -0.14,2.039 -0.449,3.467 -0.812,3.467 -0.492,0 -0.893,-2.643 -0.893,-5.903 0,-0.873 0.032,-1.695 0.082,-2.439 -1.211,-0.164 -1.988,-0.401 -1.988,-0.664 0,-0.276 0.834,-0.518 2.119,-0.682 0.164,-1.285 0.406,-2.119 0.682,-2.119 0.264,0 0.5,0.777 0.664,1.988 0.744,-0.051 1.566,-0.082 2.439,-0.082 3.26,0 5.901,0.401 5.901,0.893 0,0.363 -1.424,0.672 -3.465,0.812 0.131,0.836 0.24,2.002 0.31,3.383 0.737,-0.021 1.508,-0.033 2.309,-0.033 0.375,0 0.742,0.004 1.106,0.008 0.132,-0.963 0.287,-1.526 0.453,-1.526 0.168,0 0.322,0.571 0.457,1.543 3.855,0.094 6.73,0.446 6.73,0.869 0,0.209 -0.709,0.401 -1.887,0.553 0.17,0.475 0.325,1.625 0.444,3.231 1.56,0.023 3.01,0.07 4.267,0.14 0.137,-0.974 0.299,-1.547 0.473,-1.547 0.176,0 0.342,0.596 0.479,1.608 2.345,0.164 3.836,0.406 3.836,0.678 0,0.265 -1.43,0.503 -3.688,0.668 0.09,1.009 0.16,2.234 0.205,3.597 1.365,0.028 2.627,0.072 3.752,0.131 0.154,-2.148 0.443,-3.6 0.777,-3.6 0.338,0 0.631,1.495 0.784,3.696"
         id="path1438"
         style="opacity:0.19999701;fill:#e0ae66;fill-opacity:1;fill-rule:nonzero;stroke:none" /><path
         d="m 260.2803,255.3223 c 1.006,1.625 4.092,8.273 7.133,6.391 3.041,-1.883 -1.535,-7.608 -2.541,-9.233 -1.008,-1.627 -24.362,-35.554 -24.959,-35.183 -0.6,0.369 19.361,36.398 20.367,38.025"
         id="path1454"
         style="opacity:0.19999701;fill:#e0ae66;fill-opacity:1;fill-rule:nonzero;stroke:none" /><path
         d="m 277.9658,237.6367 c 1.625,1.006 8.275,4.092 6.393,7.133 -1.883,3.039 -7.61,-1.537 -9.235,-2.543 -1.627,-1.008 -35.553,-24.361 -35.183,-24.959 0.371,-0.598 36.398,19.361 38.025,20.369"
         id="path1470"
         style="opacity:0.19999701;fill:#e0ae66;fill-opacity:1;fill-rule:nonzero;stroke:none" /><path
         d="m 294.8506,242.2012 c -8.287,-8.285 -18.184,-4.75 -26.469,3.535 -8.287,8.285 -11.822,18.184 -3.537,26.469 8.287,8.285 21.719,8.285 30.006,0 8.285,-8.285 8.285,-21.719 0,-30.004"
         id="path1474"
         style="fill:#f0e0c6;fill-opacity:1;fill-rule:nonzero;stroke:none" /><path
         d="m 271.917,249.2715 c -7.678,7.678 -11.258,16.734 -5.156,24.613 -0.662,-0.519 -1.307,-1.07 -1.916,-1.679 -8.285,-8.286 -4.75,-18.184 3.537,-26.469 8.285,-8.285 18.181,-11.82 26.469,-3.535 0.609,0.609 1.16,1.254 1.679,1.914 -7.881,-6.1 -16.937,-2.52 -24.613,5.156"
         id="path1490"
         style="opacity:0.5;fill:#f0e0c6;fill-opacity:1;fill-rule:nonzero;stroke:none" /><path
         d="m 279.9561,262.5957 c -6.965,-0.002 -12.607,3.012 -12.607,6.73 -0.002,3.719 5.644,6.733 12.607,6.733 6.965,-0.002 12.611,-3.016 12.609,-6.733 0,-3.716 -5.644,-6.732 -12.609,-6.73"
         id="path1506"
         style="opacity:0.5;fill:#f0e0c6;fill-opacity:1;fill-rule:nonzero;stroke:none" /></g><g
       transform="translate(364.71173,26.563649)"
       id="g28764"><path
         d="m 700.3652,331.2812 c 0,-6.23 -17.908,-11.281 -40,-11.281 -22.092,0 -40,5.051 -40,11.281 0,6.23 17.908,11.279 40,11.279 22.092,0 40,-5.049 40,-11.279"
         id="path206"
         style="opacity:0.39999402;fill:#c7a687;fill-opacity:1;fill-rule:nonzero;stroke:none" /><path
         d="m 641.0566,367.7158 c -4.052,-4.053 -8.471,-6.201 -9.87,-4.803 -1.399,1.399 0.752,5.817 4.804,9.869 4.051,4.053 43.952,22.299 45.224,20.159 1.273,-2.141 -36.106,-21.172 -40.158,-25.225"
         id="path1510"
         style="fill:#f0f4f5;fill-opacity:1;fill-rule:nonzero;stroke:none" /><path
         d="m 690.6387,373.7275 c -4.943,4.275 -15.729,4.357 -30.273,4.439 -14.546,-0.082 -25.33,-0.164 -30.274,-4.439 -2.586,-2.234 -3.12,-11.613 -3.106,-21.1 -0.014,-9.486 0.52,-18.867 3.106,-21.103 4.944,-4.274 15.728,-4.356 30.274,-4.436 14.544,0.08 25.33,0.162 30.273,4.436 2.586,2.236 3.122,11.617 3.106,21.103 0.016,9.487 -0.52,18.866 -3.106,21.1"
         id="path1514"
         style="fill:#709ecb;fill-opacity:1;fill-rule:nonzero;stroke:none" /><path
         d="m 690.6387,333.5244 c -4.943,-4.273 -15.729,-4.355 -30.273,-4.436 -14.546,0.081 -25.33,0.163 -30.274,4.436 -2.495,2.156 -3.078,10.967 -3.104,20.104 0,-0.334 -0.002,-0.667 -0.002,-1 -0.014,-9.487 0.52,-18.868 3.106,-21.104 4.944,-4.273 15.728,-4.355 30.274,-4.436 14.544,0.081 25.33,0.163 30.273,4.436 2.586,2.236 3.122,11.617 3.106,21.104 0,0.333 -0.002,0.666 -0.002,1 -0.024,-9.137 -0.609,-17.948 -3.104,-20.104"
         id="path1530"
         style="opacity:0.5;fill:#709ecb;fill-opacity:1;fill-rule:nonzero;stroke:none" /><path
         d="m 630.0918,371.7275 c 4.944,4.275 15.728,4.357 30.273,4.439 14.545,-0.082 25.331,-0.164 30.274,-4.439 2.495,-2.156 3.08,-10.963 3.104,-20.1 0,0.332 0.002,0.666 0.002,1 0.016,9.487 -0.52,18.866 -3.106,21.1 -4.943,4.275 -15.729,4.357 -30.274,4.439 -14.545,-0.082 -25.329,-0.164 -30.273,-4.439 -2.586,-2.234 -3.12,-11.613 -3.106,-21.1 0,-0.334 0.002,-0.668 0.002,-1 0.026,9.137 0.609,17.944 3.104,20.1"
         id="path1546"
         style="opacity:0.5;fill:#709ecb;fill-opacity:1;fill-rule:nonzero;stroke:none" /><path
         d="m 686.415,369.8799 c -4.254,1.66 -13.534,2.691 -26.05,2.723 -12.516,-0.032 -21.795,-1.063 -26.05,-2.723 -2.224,-0.867 -2.683,-4.51 -2.671,-8.193 -0.012,-3.684 0.447,-7.325 2.671,-8.194 4.255,-1.658 13.534,-2.691 26.05,-2.722 12.516,0.031 21.796,1.064 26.05,2.722 2.225,0.869 2.686,4.51 2.672,8.194 0.014,3.683 -0.447,7.326 -2.672,8.193"
         id="path1550"
         style="fill:#f0f4f5;fill-opacity:1;fill-rule:nonzero;stroke:none" /><path
         d="m 636.3154,366.8799 c 4.255,1.66 11.533,2.691 24.05,2.723 12.515,-0.032 19.796,-1.063 24.05,-2.723 2.022,-0.789 2.224,1.133 0,2 -4.254,1.66 -11.535,2.691 -24.05,2.723 -12.517,-0.032 -19.795,-1.063 -24.05,-2.723 -2.225,-0.867 -2.022,-2.789 0,-2"
         id="path1554"
         style="fill:#ffffff;fill-opacity:1;fill-rule:nonzero;stroke:none" /><path
         d="m 686.0088,361.5986 c 0,-0.555 -11.479,-1.004 -25.645,-1.004 -14.16,0 -25.642,0.449 -25.642,1.004 0,0.555 11.482,1.004 25.642,1.004 14.166,0 25.645,-0.449 25.645,-1.004"
         id="path1558"
         style="fill:#f5d266;fill-opacity:1;fill-rule:nonzero;stroke:none" /><path
         d="m 660.3643,358.3018 c -0.329,0 -0.597,1.477 -0.597,3.297 0,1.822 0.268,3.299 0.597,3.299 0.33,0 0.598,-1.477 0.598,-3.299 0,-1.82 -0.268,-3.297 -0.598,-3.297"
         id="path1562"
         style="fill:#f5d266;fill-opacity:1;fill-rule:nonzero;stroke:none" /><path
         d="m 638.3643,358.3018 c -0.329,0 -0.597,1.477 -0.597,3.297 0,1.822 0.268,3.299 0.597,3.299 0.33,0 0.598,-1.477 0.598,-3.299 0,-1.82 -0.268,-3.297 -0.598,-3.297"
         id="path1566"
         style="fill:#f5d266;fill-opacity:1;fill-rule:nonzero;stroke:none" /><path
         d="m 643.8643,358.3018 c -0.329,0 -0.597,1.477 -0.597,3.297 0,1.822 0.268,3.299 0.597,3.299 0.33,0 0.598,-1.477 0.598,-3.299 0,-1.82 -0.268,-3.297 -0.598,-3.297"
         id="path1570"
         style="fill:#f5d266;fill-opacity:1;fill-rule:nonzero;stroke:none" /><path
         d="m 649.3643,358.3018 c -0.329,0 -0.597,1.477 -0.597,3.297 0,1.822 0.268,3.299 0.597,3.299 0.33,0 0.598,-1.477 0.598,-3.299 0,-1.82 -0.268,-3.297 -0.598,-3.297"
         id="path1574"
         style="fill:#f5d266;fill-opacity:1;fill-rule:nonzero;stroke:none" /><path
         d="m 654.8643,358.3018 c -0.329,0 -0.597,1.477 -0.597,3.297 0,1.822 0.268,3.299 0.597,3.299 0.33,0 0.598,-1.477 0.598,-3.299 0,-1.82 -0.268,-3.297 -0.598,-3.297"
         id="path1578"
         style="fill:#f5d266;fill-opacity:1;fill-rule:nonzero;stroke:none" /><path
         d="m 665.8643,358.3018 c -0.329,0 -0.597,1.477 -0.597,3.297 0,1.822 0.268,3.299 0.597,3.299 0.33,0 0.598,-1.477 0.598,-3.299 0,-1.82 -0.268,-3.297 -0.598,-3.297"
         id="path1582"
         style="fill:#f5d266;fill-opacity:1;fill-rule:nonzero;stroke:none" /><path
         d="m 671.3643,358.3018 c -0.329,0 -0.597,1.477 -0.597,3.297 0,1.822 0.268,3.299 0.597,3.299 0.33,0 0.598,-1.477 0.598,-3.299 0,-1.82 -0.268,-3.297 -0.598,-3.297"
         id="path1586"
         style="fill:#f5d266;fill-opacity:1;fill-rule:nonzero;stroke:none" /><path
         d="m 676.8652,358.3018 c -0.33,0 -0.598,1.477 -0.598,3.297 0,1.822 0.268,3.299 0.598,3.299 0.33,0 0.597,-1.477 0.597,-3.299 0,-1.82 -0.267,-3.297 -0.597,-3.297"
         id="path1590"
         style="fill:#f5d266;fill-opacity:1;fill-rule:nonzero;stroke:none" /><path
         d="m 682.3643,358.3018 c -0.329,0 -0.597,1.477 -0.597,3.297 0,1.822 0.268,3.299 0.597,3.299 0.33,0 0.598,-1.477 0.598,-3.299 0,-1.82 -0.268,-3.297 -0.598,-3.297"
         id="path1594"
         style="fill:#f5d266;fill-opacity:1;fill-rule:nonzero;stroke:none" /><g
         clip-path="url(#clipPath1604)"
         id="g1630"
         style="opacity:0.5"><g
           transform="translate(664.3174,346.0928)"
           id="g1632"><path
             d="m 0,0 c 0,-0.555 -7.237,-1.004 -16.167,-1.004 -8.928,0 -16.166,0.449 -16.166,1.004 0,0.555 7.238,1.004 16.166,1.004 C -7.237,1.004 0,0.555 0,0"
             id="path1634"
             style="fill:#709ecb;fill-opacity:1;fill-rule:nonzero;stroke:none" /></g></g><g
         clip-path="url(#clipPath1608)"
         id="g1642"
         style="opacity:0.5"><g
           transform="translate(664.3174,334.0928)"
           id="g1644"><path
             d="m 0,0 c 0,-0.555 -5.318,-1.004 -11.879,-1.004 -6.56,0 -11.879,0.449 -11.879,1.004 0,0.555 5.319,1.004 11.879,1.004 C -5.318,1.004 0,0.555 0,0"
             id="path1646"
             style="fill:#709ecb;fill-opacity:1;fill-rule:nonzero;stroke:none" /></g></g><g
         clip-path="url(#clipPath1612)"
         id="g1654"
         style="opacity:0.5"><g
           transform="translate(664.3174,342.0928)"
           id="g1656"><path
             d="m 0,0 c 0,-0.555 -6.557,-1.004 -14.648,-1.004 -8.089,0 -14.648,0.449 -14.648,1.004 0,0.555 6.559,1.004 14.648,1.004 C -6.557,1.004 0,0.555 0,0"
             id="path1658"
             style="fill:#709ecb;fill-opacity:1;fill-rule:nonzero;stroke:none" /></g></g><g
         clip-path="url(#clipPath1616)"
         id="g1666"
         style="opacity:0.5"><g
           transform="translate(664.3174,338.0928)"
           id="g1668"><path
             d="m 0,0 c 0,-0.555 -5.924,-1.004 -13.232,-1.004 -7.307,0 -13.231,0.449 -13.231,1.004 0,0.555 5.924,1.004 13.231,1.004 C -5.924,1.004 0,0.555 0,0"
             id="path1670"
             style="fill:#709ecb;fill-opacity:1;fill-rule:nonzero;stroke:none" /></g></g><path
         d="m 686.3545,340.3584 c 0,-4.281 -3.47,-7.75 -7.75,-7.75 -4.28,0 -7.75,3.469 -7.75,7.75 0,4.279 3.47,7.75 7.75,7.75 4.28,0 7.75,-3.471 7.75,-7.75"
         id="path1674"
         style="fill:#f0f4f5;fill-opacity:1;fill-rule:nonzero;stroke:none" /><path
         d="m 682.6465,340.3584 c 0,-2.232 -1.81,-4.043 -4.042,-4.043 -2.232,0 -4.042,1.811 -4.042,4.043 0,2.232 1.81,4.041 4.042,4.041 2.232,0 4.042,-1.809 4.042,-4.041"
         id="path1678"
         style="fill:#e96565;fill-opacity:1;fill-rule:nonzero;stroke:none" /><path
         d="m 683.7197,392.9521 c 0,-1.381 -1.119,-2.5 -2.5,-2.5 -1.381,0 -2.5,1.119 -2.5,2.5 0,1.381 1.119,2.5 2.5,2.5 1.381,0 2.5,-1.119 2.5,-2.5"
         id="path1682"
         style="fill:#f0f4f5;fill-opacity:1;fill-rule:nonzero;stroke:none" /><path
         d="m 668.6055,357.5713 c -0.269,0 -1.294,-5.826 -1.337,-6.67 0.915,0.033 1.799,0.074 2.665,0.119 -0.118,1.194 -1.071,6.551 -1.328,6.551"
         id="path1686"
         style="fill:#e96565;fill-opacity:1;fill-rule:nonzero;stroke:none" /></g><g
       transform="translate(364.71173,26.563649)"
       id="g28843"><path
         d="m 180.3652,111.2813 c 0,-6.23 -17.908,-11.281 -40,-11.281 -22.092,0 -40,5.051 -40,11.281 0,6.23 17.908,11.279 40,11.279 22.092,0 40,-5.049 40,-11.279"
         id="path430"
         style="opacity:0.39999402;fill:#c7a687;fill-opacity:1;fill-rule:nonzero;stroke:none" /><path
         d="m 172.5112,110.1533 c 0.606,-0.603 0.606,-1.579 0,-2.184 -0.601,-0.602 -1.577,-0.602 -2.182,0 l -50.011,50.014 c -0.603,0.601 -0.602,1.577 0,2.18 0.606,0.606 1.579,0.602 2.183,0 l 50.01,-50.01 z"
         id="path1690"
         style="fill:#f0f4f5;fill-opacity:1;fill-rule:nonzero;stroke:none" /><path
         d="m 163.3584,169.6436 c -9.069,9.069 -33.689,-4.833 -40.761,-11.857 -7.025,-7.073 -20.926,-31.693 -11.857,-40.762 0.008,-0.008 0.655,-0.656 0.66,-0.664 -0.625,3.845 -0.11,8.56 2.854,11.525 3.847,3.843 8.923,5.295 13.575,3.093 -3.035,6.017 -1.416,12.899 3.61,17.928 0.006,0.006 0.014,0.011 0.02,0.017 0.006,0.006 0.012,0.014 0.018,0.021 5.027,5.025 11.911,6.646 17.927,3.609 -2.201,4.652 -0.75,9.73 3.093,13.576 2.965,2.963 7.681,3.479 11.525,2.854 -0.008,0.004 -0.655,0.652 -0.664,0.66"
         id="path1694"
         style="fill:#f5d266;fill-opacity:1;fill-rule:nonzero;stroke:none" /><path
         d="m 122.5972,157.7861 c -7.025,-7.072 -20.926,-31.692 -11.857,-40.762 0.008,-0.008 0.655,-0.656 0.66,-0.664 -0.625,3.845 -0.11,8.561 2.855,11.526 3.841,3.837 8.908,5.288 13.554,3.1 -4.101,5.74 -7.368,14.209 -5.212,26.8"
         id="path1698"
         style="fill:#e96565;fill-opacity:1;fill-rule:nonzero;stroke:none" /><path
         d="m 122.5972,157.7861 c 7.072,7.024 31.692,20.927 40.761,11.857 0.009,-0.007 0.656,-0.656 0.664,-0.66 -3.844,0.625 -8.559,0.11 -11.525,-2.853 -3.837,-3.843 -5.288,-8.91 -3.101,-13.557 -5.739,4.102 -14.208,7.369 -26.799,5.213"
         id="path1702"
         style="fill:#709ecb;fill-opacity:1;fill-rule:nonzero;stroke:none" /></g><g
       transform="translate(364.71173,26.563649)"
       id="g28805"><path
         d="m 570.3652,221.2812 c 0,-6.23 -17.908,-11.281 -40,-11.281 -22.092,0 -40,5.051 -40,11.281 0,6.23 17.908,11.279 40,11.279 22.092,0 40,-5.049 40,-11.279"
         id="path222"
         style="opacity:0.39999402;fill:#c7a687;fill-opacity:1;fill-rule:nonzero;stroke:none" /><path
         d="m 533.4238,220.0801 c 0.005,-1.695 -1.363,-3.062 -3.061,-3.06 -1.685,-0.002 -3.053,1.365 -3.057,3.059 l 0.004,26.79 c -0.004,1.686 1.368,3.055 3.055,3.055 1.699,0 3.059,-1.369 3.06,-3.061 l -10e-4,-26.783 z"
         id="path1706"
         style="fill:#f0e0c6;fill-opacity:1;fill-rule:nonzero;stroke:none" /><path
         d="m 546.4053,267.0811 c 0,8.86 -7.181,16.041 -16.04,16.041 -8.858,0 -16.04,-7.181 -16.04,-16.041 0,-33.564 -2.852,-34.939 16.04,-34.939 18.892,0 16.04,1.375 16.04,34.939"
         id="path1710"
         style="fill:#f5d266;fill-opacity:1;fill-rule:nonzero;stroke:none" /><path
         d="m 530.3652,232.1416 c 18.79,0 16.072,1.372 16.042,34.415 l -32.082,0 c -0.031,-33.043 -2.75,-34.415 16.04,-34.415"
         id="path1714"
         style="fill:#93a754;fill-opacity:1;fill-rule:nonzero;stroke:none" /><path
         d="m 514.1729,248.708 c -0.011,-15.731 1.637,-16.566 16.192,-16.566 14.556,0 16.204,0.835 16.194,16.566 l -32.386,0 z"
         id="path1718"
         style="fill:#e96565;fill-opacity:1;fill-rule:nonzero;stroke:none" /><path
         d="m 518.1211,265.8154 c 0,7.449 6.039,13.486 13.487,13.486 3.28,0 6.285,-1.171 8.621,-3.119 -2.472,2.971 -6.197,4.865 -10.365,4.865 -7.448,0 -13.488,-6.038 -13.488,-13.488 0,-4.409 -0.058,-12.309 -0.094,-15.499 -0.125,-10.513 -0.023,-14.904 3.129,-16.733 -1.547,2.647 -1.477,7.587 -1.363,16.8 0.035,2.773 0.073,10.085 0.073,13.688"
         id="path1734"
         style="opacity:0.19999701;fill:#f0e0c6;fill-opacity:1;fill-rule:nonzero;stroke:none" /><path
         d="m 546.4053,267.0811 c 0,4.96 -2.252,9.389 -5.786,12.332 2.315,-2.779 3.711,-6.355 3.711,-10.256 0,-33.566 2.85,-34.94 -16.039,-34.94 -6.198,0 -10.047,0.156 -12.433,1.541 1.944,-3.331 6.037,-3.616 14.507,-3.616 18.892,0 16.04,1.375 16.04,34.939"
         id="path1750"
         style="fill:#f0f4f5;fill-opacity:1;fill-rule:nonzero;stroke:none" /></g><g
       transform="translate(364.71173,26.563649)"
       id="g28860"><path
         d="m 440.3652,111.2813 c 0,-6.23 -17.908,-11.281 -40,-11.281 -22.092,0 -40,5.051 -40,11.281 0,6.23 17.908,11.279 40,11.279 22.092,0 40,-5.049 40,-11.279"
         id="path398"
         style="opacity:0.39999402;fill:#c7a687;fill-opacity:1;fill-rule:nonzero;stroke:none" /><path
         d="m 426.1699,150.8877 c -1.449,-0.104 -3.154,-1.785 -5.453,-4.059 -2.272,-2.296 -3.953,-4.004 -4.057,-5.451 -0.056,-0.758 1.334,-2.314 2.826,-3.803 1.489,-1.492 3.045,-2.88 3.803,-2.826 1.447,0.106 3.154,1.785 5.451,4.059 2.272,2.297 3.953,4.004 4.059,5.451 0.055,0.758 -1.334,2.315 -2.826,3.803 -1.489,1.492 -3.047,2.881 -3.803,2.826"
         id="path1754"
         style="fill:#4e4e4e;fill-opacity:1;fill-rule:nonzero;stroke:none" /><path
         d="m 431.7812,133.2803 c -0.416,5.729 -7.066,12.48 -16.053,21.568 -9.088,8.989 -15.84,15.639 -21.568,16.053 -2.996,0.219 -9.156,-5.277 -15.041,-11.18 -5.903,-5.886 -11.401,-12.046 -11.183,-15.043 0.417,-5.726 7.066,-12.478 16.054,-21.566 9.088,-8.988 15.841,-15.639 21.568,-16.055 2.994,-0.216 9.157,5.278 15.041,11.182 5.905,5.885 11.401,12.047 11.182,15.041"
         id="path1758"
         style="fill:#4e4e4e;fill-opacity:1;fill-rule:nonzero;stroke:none" /><path
         d="m 406.8008,108.2998 c -5.728,0.416 -12.479,7.068 -21.568,16.055 -8.987,9.088 -15.637,15.84 -16.053,21.566 -0.211,2.891 4.9,8.727 10.561,14.42 -0.207,-0.207 -0.415,-0.412 -0.622,-0.619 -5.903,-5.887 -11.4,-12.047 -11.182,-15.043 0.417,-5.727 7.065,-12.479 16.053,-21.566 9.088,-8.989 15.841,-15.639 21.569,-16.055 2.994,-0.217 9.156,5.277 15.041,11.181 0.209,0.207 0.414,0.416 0.621,0.624 -5.693,-5.663 -11.529,-10.774 -14.42,-10.563"
         id="path1774"
         style="opacity:0.5;fill:#4e4e4e;fill-opacity:1;fill-rule:nonzero;stroke:none" /><path
         d="m 392.917,169.6592 c 5.729,-0.416 12.479,-7.064 21.569,-16.053 8.987,-9.088 15.637,-15.84 16.053,-21.568 0.209,-2.891 -4.898,-8.727 -10.56,-14.418 0.207,0.207 0.414,0.412 0.621,0.619 5.904,5.885 11.4,12.047 11.181,15.041 -0.416,5.729 -7.066,12.481 -16.052,21.568 -9.088,8.989 -15.84,15.639 -21.569,16.053 -2.996,0.219 -9.156,-5.277 -15.041,-11.18 -0.209,-0.208 -0.414,-0.416 -0.621,-0.623 5.693,5.661 11.529,10.772 14.419,10.561"
         id="path1790"
         style="opacity:0.60000598;fill:#535352;fill-opacity:1;fill-rule:nonzero;stroke:none" /><path
         d="m 409.1797,127.1748 c -5.834,-5.834 -15.292,-5.834 -21.127,0 -5.834,5.834 -5.834,15.291 0,21.125 5.834,5.834 15.293,5.834 21.127,0 5.834,-5.834 5.834,-15.291 0,-21.125"
         id="path1806"
         style="opacity:0.5;fill:#4e4e4e;fill-opacity:1;fill-rule:nonzero;stroke:none" /><path
         d="m 410.4219,128.417 c -5.834,-5.834 -15.291,-5.834 -21.125,0 -5.834,5.834 -5.834,15.293 0,21.127 5.834,5.834 15.291,5.834 21.125,0 5.836,-5.834 5.834,-15.293 0,-21.127"
         id="path1810"
         style="fill:#f0e0c6;fill-opacity:1;fill-rule:nonzero;stroke:none" /><path
         d="m 408.1133,130.7275 c -4.559,-4.559 -11.948,-4.559 -16.507,0 -4.557,4.559 -4.557,11.947 0,16.506 4.559,4.558 11.948,4.558 16.505,0 4.559,-4.559 4.561,-11.947 0.002,-16.506"
         id="path1814"
         style="fill:#4e4e4e;fill-opacity:1;fill-rule:nonzero;stroke:none" /><path
         d="m 407.3086,131.5322 c -4.115,-4.113 -10.784,-4.115 -14.898,0 -4.114,4.113 -4.114,10.783 0,14.896 4.114,4.114 10.785,4.114 14.898,0 4.113,-4.113 4.113,-10.783 0,-14.896"
         id="path1830"
         style="opacity:0.19999701;fill:#4e4e4e;fill-opacity:1;fill-rule:nonzero;stroke:none" /><path
         d="m 403.1387,135.7021 c -1.811,-1.811 -4.747,-1.811 -6.558,0 -1.81,1.811 -1.809,4.746 0,6.557 1.81,1.81 4.746,1.81 6.558,0 1.811,-1.811 1.811,-4.746 0,-6.557"
         id="path1846"
         style="opacity:0.5;fill:#4e4e4e;fill-opacity:1;fill-rule:nonzero;stroke:none" /><path
         d="m 399.8584,142.4346 c -3.064,0 -5.548,1.326 -5.548,2.961 0,1.637 2.485,2.963 5.549,2.963 3.064,0 5.549,-1.326 5.549,-2.961 0,-1.637 -2.485,-2.963 -5.55,-2.963"
         id="path1862"
         style="opacity:0.5;fill:#ffffff;fill-opacity:1;fill-rule:nonzero;stroke:none" /><path
         d="m 399.8594,129.6025 c -2.068,-0.002 -3.746,1.293 -3.746,2.889 0,1.597 1.678,2.892 3.746,2.89 2.068,0 3.744,-1.293 3.744,-2.89 0,-1.596 -1.676,-2.891 -3.744,-2.889"
         id="path1878"
         style="opacity:0.5;fill:#ffffff;fill-opacity:1;fill-rule:nonzero;stroke:none" /><path
         d="m 398.293,160.8486 c -0.062,0.855 -1.057,1.867 -2.402,3.227 -1.36,1.343 -2.369,2.339 -3.227,2.4 -0.448,0.033 -1.369,-0.789 -2.25,-1.672 -0.883,-0.881 -1.706,-1.803 -1.673,-2.25 0.062,-0.857 1.057,-1.867 2.402,-3.226 1.359,-1.346 2.37,-2.34 3.226,-2.403 0.449,-0.033 1.37,0.789 2.25,1.674 0.885,0.879 1.706,1.801 1.674,2.25"
         id="path1882"
         style="fill:#f0f4f5;fill-opacity:1;fill-rule:nonzero;stroke:none" /><path
         d="m 397.6758,160.6494 c -0.122,-0.121 -1.387,0.945 -2.826,2.385 -1.438,1.437 -2.505,2.703 -2.384,2.824 0.122,0.121 1.386,-0.945 2.825,-2.385 1.438,-1.437 2.506,-2.703 2.385,-2.824"
         id="path1898"
         style="opacity:0.19999701;fill:#4e4e4e;fill-opacity:1;fill-rule:nonzero;stroke:none" /><path
         d="m 397.0537,160.0283 c -0.121,-0.121 -1.387,0.945 -2.825,2.385 -1.438,1.437 -2.506,2.703 -2.384,2.824 0.121,0.121 1.386,-0.945 2.825,-2.385 1.438,-1.437 2.506,-2.703 2.384,-2.824"
         id="path1914"
         style="opacity:0.19999701;fill:#4e4e4e;fill-opacity:1;fill-rule:nonzero;stroke:none" /><path
         d="m 396.4326,159.4072 c -0.122,-0.121 -1.387,0.945 -2.825,2.385 -1.439,1.437 -2.506,2.703 -2.385,2.824 0.121,0.121 1.387,-0.947 2.825,-2.385 1.439,-1.439 2.506,-2.703 2.385,-2.824"
         id="path1930"
         style="opacity:0.19999701;fill:#4e4e4e;fill-opacity:1;fill-rule:nonzero;stroke:none" /><path
         d="m 395.8105,158.7861 c -0.121,-0.123 -1.386,0.945 -2.824,2.383 -1.439,1.439 -2.506,2.705 -2.385,2.826 0.121,0.121 1.387,-0.947 2.824,-2.385 1.44,-1.439 2.506,-2.703 2.385,-2.824"
         id="path1946"
         style="opacity:0.19999701;fill:#4e4e4e;fill-opacity:1;fill-rule:nonzero;stroke:none" /><path
         d="m 395.1895,158.1631 c -0.121,-0.121 -1.387,0.947 -2.824,2.385 -1.44,1.439 -2.506,2.703 -2.385,2.824 0.121,0.123 1.387,-0.945 2.824,-2.383 1.44,-1.439 2.506,-2.705 2.385,-2.826"
         id="path1962"
         style="opacity:0.19999701;fill:#4e4e4e;fill-opacity:1;fill-rule:nonzero;stroke:none" /><path
         d="m 394.5684,157.542 c -0.121,-0.121 -1.387,0.947 -2.825,2.385 -1.439,1.439 -2.505,2.703 -2.384,2.824 0.121,0.121 1.387,-0.945 2.824,-2.383 1.439,-1.439 2.506,-2.705 2.385,-2.826"
         id="path1978"
         style="opacity:0.19999701;fill:#4e4e4e;fill-opacity:1;fill-rule:nonzero;stroke:none" /></g><g
       transform="translate(364.71173,26.563649)"
       id="g28881"><path
         d="m 570.3652,111.2813 c 0,-6.23 -17.908,-11.281 -40,-11.281 -22.092,0 -40,5.051 -40,11.281 0,6.23 17.908,11.279 40,11.279 22.092,0 40,-5.049 40,-11.279"
         id="path382"
         style="opacity:0.39999402;fill:#c7a687;fill-opacity:1;fill-rule:nonzero;stroke:none" /><path
         d="m 549.709,156.0547 c 0.578,3.019 -51.095,3.221 -50.704,0 0.391,-3.219 5.998,-33.319 6.896,-37.5 0.002,-0.01 0.008,-0.018 0.01,-0.028 0.811,-3.591 8.758,-6.407 18.445,-6.407 9.638,0 17.549,2.785 18.437,6.346 0,0 0.002,0 0.002,0.002 0.547,2.356 6.511,35.476 6.914,37.587"
         id="path1982"
         style="fill:#f5d266;fill-opacity:1;fill-rule:nonzero;stroke:none" /><path
         d="m 542.793,118.4658 c 0,0 0.002,0 0.002,0.002 0.173,0.742 0.883,4.543 1.788,9.466 -4.628,-2.316 -11.963,-3.813 -20.227,-3.813 -8.291,0 -15.654,1.509 -20.279,3.838 0.854,-4.523 1.553,-8.143 1.824,-9.404 0.002,-0.01 0.008,-0.018 0.01,-0.028 0.811,-3.591 8.758,-6.407 18.445,-6.407 9.638,0 17.549,2.784 18.437,6.346"
         id="path1986"
         style="fill:#709ecb;fill-opacity:1;fill-rule:nonzero;stroke:none" /><path
         d="m 499.0049,156.0547 c 0.148,-1.233 1.066,-6.422 2.191,-12.585 4.756,-2.957 13.35,-4.933 23.161,-4.933 9.739,0 18.273,1.949 23.05,4.867 1.172,6.457 2.147,11.84 2.302,12.651 0.578,3.019 -51.095,3.221 -50.704,0"
         id="path1990"
         style="fill:#93a754;fill-opacity:1;fill-rule:nonzero;stroke:none" /><path
         d="m 545.4961,157.4141 c -1.476,-8.104 -5.997,-33.14 -6.472,-35.179 l 0,-0.002 c -0.886,-3.558 -8.8,-6.342 -18.436,-6.342 -5.998,0 -11.322,1.08 -14.706,2.753 0.006,-0.027 0.013,-0.064 0.019,-0.089 0.002,-0.01 0.008,-0.018 0.01,-0.029 0.811,-3.591 8.758,-6.406 18.445,-6.406 9.638,0 17.549,2.784 18.437,6.346 0,0 0.002,0 0.002,0.002 0.547,2.355 6.511,35.475 6.914,37.587 0.104,0.547 -1.509,1.002 -4.213,1.359"
         id="path2006"
         style="fill:#f0f4f5;fill-opacity:1;fill-rule:nonzero;stroke:none" /><path
         d="m 549.709,156.334 c 0,-5.301 -11.35,-9.598 -25.353,-9.598 -13.999,0 -25.351,4.297 -25.351,9.598 0,5.301 11.352,9.596 25.351,9.596 14.003,0 25.353,-4.295 25.353,-9.596"
         id="path2010"
         style="fill:#a2b461;fill-opacity:1;fill-rule:nonzero;stroke:none" /><path
         d="m 546.2344,156.334 c 0,-3.959 -9.795,-7.17 -21.878,-7.17 -12.08,0 -21.877,3.211 -21.877,7.17 0,3.959 9.797,7.17 21.877,7.17 12.083,0 21.878,-3.211 21.878,-7.17"
         id="path2014"
         style="fill:#879c4a;fill-opacity:1;fill-rule:nonzero;stroke:none" /><path
         d="m 524.3564,170.9785 c -7.333,0 -18.501,-13.532 -21.062,-16.561 2.561,-3.028 11.009,-5.253 21.062,-5.253 10.053,0 18.503,2.225 21.063,5.253 -2.56,3.029 -13.73,16.561 -21.063,16.561"
         id="path2018"
         style="fill:#e0ae66;fill-opacity:1;fill-rule:nonzero;stroke:none" /><path
         d="m 524.3564,170.9785 c -7.333,0 -18.501,-13.532 -21.062,-16.561 2.561,-3.028 11.009,-5.253 21.062,-5.253 10.053,0 18.503,2.225 21.063,5.253 -2.56,3.029 -13.73,16.561 -21.063,16.561"
         id="path2022"
         style="fill:#e0ae66;fill-opacity:1;fill-rule:nonzero;stroke:none" /><path
         d="m 509.9736,119.6094 c -1.07,0 -2.022,0.763 -2.223,1.854 l -4.207,22.943 c -0.225,1.23 0.587,2.408 1.817,2.633 1.224,0.226 2.406,-0.588 2.631,-1.817 l 4.209,-22.943 c 0.224,-1.231 -0.588,-2.408 -1.818,-2.633 -0.137,-0.025 -0.274,-0.037 -0.409,-0.037"
         id="path2038"
         style="opacity:0.19999701;fill:#f0e0c6;fill-opacity:1;fill-rule:nonzero;stroke:none" /><path
         d="m 531.252,166.2842 c 0,-0.392 -0.316,-0.708 -0.707,-0.708 -0.391,0 -0.707,0.316 -0.707,0.708 0,0.39 0.316,0.706 0.707,0.706 0.391,0 0.707,-0.316 0.707,-0.706"
         id="path2054"
         style="opacity:0.19999701;fill:#e0ae66;fill-opacity:1;fill-rule:nonzero;stroke:none" /><path
         d="m 530.6865,164.085 c 0,-0.184 -0.147,-0.329 -0.33,-0.329 -0.182,0 -0.33,0.145 -0.33,0.329 0,0.183 0.148,0.33 0.33,0.33 0.183,0 0.33,-0.147 0.33,-0.33"
         id="path2070"
         style="opacity:0.19999701;fill:#e0ae66;fill-opacity:1;fill-rule:nonzero;stroke:none" /><path
         d="m 528.6758,164.9951 c 0,-0.181 -0.147,-0.33 -0.329,-0.33 -0.183,0 -0.331,0.149 -0.331,0.33 0,0.184 0.148,0.331 0.331,0.331 0.182,0 0.329,-0.147 0.329,-0.331"
         id="path2086"
         style="opacity:0.19999701;fill:#e0ae66;fill-opacity:1;fill-rule:nonzero;stroke:none" /><path
         d="m 519.8154,166.3496 c 0.388,-0.048 0.663,-0.401 0.614,-0.789 -0.048,-0.388 -0.401,-0.661 -0.789,-0.614 -0.387,0.049 -0.661,0.401 -0.612,0.789 0.047,0.387 0.4,0.663 0.787,0.614"
         id="path2102"
         style="opacity:0.19999701;fill:#e0ae66;fill-opacity:1;fill-rule:nonzero;stroke:none" /><path
         d="m 521.9287,165.5166 c 0.18,-0.023 0.309,-0.188 0.285,-0.367 -0.021,-0.182 -0.186,-0.312 -0.367,-0.288 -0.182,0.024 -0.31,0.189 -0.287,0.368 0.023,0.182 0.187,0.308 0.369,0.287"
         id="path2118"
         style="opacity:0.19999701;fill:#e0ae66;fill-opacity:1;fill-rule:nonzero;stroke:none" /><path
         d="m 520.7764,163.6338 c 0.18,-0.021 0.309,-0.187 0.285,-0.368 -0.021,-0.181 -0.187,-0.309 -0.368,-0.287 -0.181,0.023 -0.31,0.189 -0.286,0.37 0.022,0.179 0.187,0.308 0.369,0.285"
         id="path2134"
         style="opacity:0.19999701;fill:#e0ae66;fill-opacity:1;fill-rule:nonzero;stroke:none" /><path
         d="m 529.2324,160.1494 c -0.147,0.36 0.028,0.773 0.389,0.921 0.361,0.147 0.773,-0.025 0.92,-0.388 0.147,-0.362 -0.026,-0.773 -0.387,-0.921 -0.36,-0.147 -0.775,0.026 -0.922,0.388"
         id="path2150"
         style="opacity:0.19999701;fill:#e0ae66;fill-opacity:1;fill-rule:nonzero;stroke:none" /><path
         d="m 528.9268,162.3984 c -0.068,0.169 0.013,0.362 0.182,0.431 0.168,0.069 0.36,-0.012 0.429,-0.181 0.069,-0.17 -0.013,-0.362 -0.18,-0.432 -0.169,-0.066 -0.361,0.013 -0.431,0.182"
         id="path2166"
         style="opacity:0.19999701;fill:#e0ae66;fill-opacity:1;fill-rule:nonzero;stroke:none" /><path
         d="m 531.1318,162.3135 c -0.067,0.169 0.015,0.36 0.182,0.429 0.168,0.069 0.36,-0.012 0.431,-0.181 0.067,-0.167 -0.014,-0.36 -0.183,-0.429 -0.169,-0.069 -0.361,0.012 -0.43,0.181"
         id="path2182"
         style="opacity:0.19999701;fill:#e0ae66;fill-opacity:1;fill-rule:nonzero;stroke:none" /><path
         d="m 512.2529,156.21 c 0.316,0.23 0.759,0.157 0.986,-0.159 0.229,-0.317 0.157,-0.76 -0.16,-0.986 -0.317,-0.228 -0.759,-0.158 -0.987,0.16 -0.228,0.316 -0.156,0.759 0.161,0.985"
         id="path2198"
         style="opacity:0.19999701;fill:#e0ae66;fill-opacity:1;fill-rule:nonzero;stroke:none" /><path
         d="m 514.3672,157.0361 c 0.149,0.108 0.354,0.073 0.46,-0.074 0.107,-0.148 0.073,-0.355 -0.074,-0.461 -0.148,-0.106 -0.354,-0.07 -0.461,0.075 -0.106,0.148 -0.072,0.355 0.075,0.46"
         id="path2214"
         style="opacity:0.19999701;fill:#e0ae66;fill-opacity:1;fill-rule:nonzero;stroke:none" /><path
         d="m 514.8018,154.874 c 0.148,0.106 0.354,0.073 0.461,-0.076 0.106,-0.149 0.074,-0.353 -0.074,-0.461 -0.149,-0.105 -0.355,-0.07 -0.461,0.075 -0.107,0.15 -0.072,0.354 0.074,0.462"
         id="path2230"
         style="opacity:0.19999701;fill:#e0ae66;fill-opacity:1;fill-rule:nonzero;stroke:none" /><path
         d="m 518.4111,158.1562 c -0.207,-0.331 -0.644,-0.431 -0.975,-0.223 -0.33,0.207 -0.43,0.644 -0.222,0.975 0.207,0.33 0.644,0.431 0.974,0.222 0.33,-0.206 0.431,-0.644 0.223,-0.974"
         id="path2246"
         style="opacity:0.19999701;fill:#e0ae66;fill-opacity:1;fill-rule:nonzero;stroke:none" /><path
         d="m 516.7646,156.5937 c -0.098,-0.153 -0.302,-0.2 -0.455,-0.104 -0.154,0.096 -0.201,0.301 -0.105,0.455 0.097,0.155 0.302,0.2 0.455,0.106 0.154,-0.099 0.201,-0.302 0.105,-0.457"
         id="path2262"
         style="opacity:0.19999701;fill:#e0ae66;fill-opacity:1;fill-rule:nonzero;stroke:none" /><path
         d="m 515.5439,158.4336 c -0.096,-0.153 -0.299,-0.201 -0.455,-0.104 -0.152,0.096 -0.2,0.3 -0.104,0.455 0.098,0.155 0.301,0.2 0.455,0.103 0.155,-0.096 0.202,-0.299 0.104,-0.454"
         id="path2278"
         style="opacity:0.19999701;fill:#e0ae66;fill-opacity:1;fill-rule:nonzero;stroke:none" /><path
         d="m 528.7773,151.7002 c -0.386,0.052 -0.656,0.409 -0.605,0.795 0.053,0.388 0.409,0.657 0.795,0.604 0.387,-0.051 0.659,-0.407 0.606,-0.795 -0.051,-0.385 -0.41,-0.657 -0.796,-0.604"
         id="path2294"
         style="opacity:0.19999701;fill:#e0ae66;fill-opacity:1;fill-rule:nonzero;stroke:none" /><path
         d="m 526.6748,152.5566 c -0.18,0.023 -0.307,0.19 -0.281,0.371 0.023,0.18 0.189,0.308 0.371,0.284 0.18,-0.026 0.306,-0.193 0.281,-0.372 -0.023,-0.181 -0.189,-0.306 -0.371,-0.283"
         id="path2310"
         style="opacity:0.19999701;fill:#e0ae66;fill-opacity:1;fill-rule:nonzero;stroke:none" /><path
         d="m 527.8486,154.4258 c -0.18,0.023 -0.307,0.19 -0.281,0.372 0.023,0.179 0.19,0.307 0.371,0.283 0.18,-0.025 0.306,-0.193 0.281,-0.372 -0.023,-0.18 -0.19,-0.306 -0.371,-0.283"
         id="path2326"
         style="opacity:0.19999701;fill:#e0ae66;fill-opacity:1;fill-rule:nonzero;stroke:none" /><path
         d="m 538.4717,154.8408 c 0.106,0.376 0.496,0.594 0.872,0.49 0.376,-0.106 0.594,-0.496 0.488,-0.872 -0.104,-0.376 -0.496,-0.596 -0.872,-0.49 -0.374,0.106 -0.592,0.498 -0.488,0.872"
         id="path2342"
         style="opacity:0.19999701;fill:#e0ae66;fill-opacity:1;fill-rule:nonzero;stroke:none" /><path
         d="m 539.6133,156.8047 c 0.049,0.175 0.23,0.277 0.405,0.228 0.175,-0.049 0.278,-0.232 0.231,-0.408 -0.052,-0.174 -0.233,-0.277 -0.409,-0.227 -0.176,0.049 -0.278,0.231 -0.227,0.407"
         id="path2358"
         style="opacity:0.19999701;fill:#e0ae66;fill-opacity:1;fill-rule:nonzero;stroke:none" /><path
         d="m 541.3018,155.3838 c 0.047,0.175 0.229,0.275 0.407,0.229 0.173,-0.052 0.276,-0.233 0.228,-0.41 -0.051,-0.175 -0.234,-0.275 -0.407,-0.226 -0.175,0.049 -0.278,0.23 -0.228,0.407"
         id="path2374"
         style="opacity:0.19999701;fill:#e0ae66;fill-opacity:1;fill-rule:nonzero;stroke:none" /><path
         d="m 524.1377,169.7529 c -5.461,0 -18.398,-13.527 -18.019,-15.213 0.382,-1.684 8.2,-3.912 15.685,-3.912 5.586,0 4.596,19.125 2.334,19.125"
         id="path2390"
         style="opacity:0.19999701;fill:#e0ae66;fill-opacity:1;fill-rule:nonzero;stroke:none" /><path
         d="m 561.5439,112.1855 c -1.731,2.16 -11.333,13.671 -17.444,13.784 -6.114,-0.113 -15.715,-11.624 -17.449,-13.784 -1.734,-2.165 9.088,-5.112 17.449,-5.134 8.358,0.022 19.179,2.969 17.444,5.134"
         id="path2394"
         style="fill:#e0ae66;fill-opacity:1;fill-rule:nonzero;stroke:none" /><path
         d="m 549.9336,122.0664 c 0,-0.324 -0.264,-0.59 -0.591,-0.59 -0.324,0 -0.588,0.266 -0.588,0.59 0,0.325 0.264,0.588 0.588,0.588 0.327,0 0.591,-0.263 0.591,-0.588"
         id="path2410"
         style="opacity:0.19999701;fill:#e0ae66;fill-opacity:1;fill-rule:nonzero;stroke:none" /><path
         d="m 549.4609,120.2344 c 0,-0.151 -0.124,-0.273 -0.273,-0.273 -0.152,0 -0.276,0.122 -0.276,0.273 0,0.151 0.124,0.275 0.276,0.275 0.149,0 0.273,-0.124 0.273,-0.275"
         id="path2426"
         style="opacity:0.19999701;fill:#e0ae66;fill-opacity:1;fill-rule:nonzero;stroke:none" /><path
         d="m 547.7861,120.9941 c 0,-0.153 -0.124,-0.275 -0.273,-0.275 -0.152,0 -0.276,0.122 -0.276,0.275 0,0.151 0.124,0.273 0.276,0.273 0.149,0 0.273,-0.122 0.273,-0.273"
         id="path2442"
         style="opacity:0.19999701;fill:#e0ae66;fill-opacity:1;fill-rule:nonzero;stroke:none" /><path
         d="m 540.4102,122.1191 c 0.32,-0.039 0.551,-0.332 0.51,-0.654 -0.04,-0.324 -0.335,-0.552 -0.657,-0.512 -0.324,0.041 -0.551,0.334 -0.51,0.657 0.039,0.322 0.334,0.551 0.657,0.509"
         id="path2458"
         style="opacity:0.19999701;fill:#e0ae66;fill-opacity:1;fill-rule:nonzero;stroke:none" /><path
         d="m 542.1689,121.4268 c 0.149,-0.018 0.256,-0.157 0.238,-0.307 -0.019,-0.149 -0.157,-0.257 -0.306,-0.238 -0.151,0.02 -0.258,0.155 -0.239,0.307 0.02,0.15 0.156,0.256 0.307,0.238"
         id="path2474"
         style="opacity:0.19999701;fill:#e0ae66;fill-opacity:1;fill-rule:nonzero;stroke:none" /><path
         d="m 541.207,119.8584 c 0.151,-0.02 0.258,-0.155 0.24,-0.307 -0.019,-0.149 -0.158,-0.255 -0.307,-0.238 -0.152,0.021 -0.258,0.155 -0.238,0.308 0.018,0.151 0.156,0.258 0.305,0.237"
         id="path2490"
         style="opacity:0.19999701;fill:#e0ae66;fill-opacity:1;fill-rule:nonzero;stroke:none" /><path
         d="m 548.251,116.957 c -0.124,0.301 0.021,0.645 0.322,0.767 0.302,0.124 0.644,-0.022 0.768,-0.323 0.122,-0.3 -0.022,-0.645 -0.324,-0.767 -0.3,-0.122 -0.644,0.021 -0.766,0.323"
         id="path2506"
         style="opacity:0.19999701;fill:#e0ae66;fill-opacity:1;fill-rule:nonzero;stroke:none" /><path
         d="m 547.9951,118.8301 c -0.057,0.142 0.012,0.301 0.151,0.357 0.14,0.058 0.301,-0.009 0.359,-0.149 0.056,-0.142 -0.012,-0.301 -0.152,-0.357 -0.139,-0.058 -0.299,0.009 -0.358,0.149"
         id="path2522"
         style="opacity:0.19999701;fill:#e0ae66;fill-opacity:1;fill-rule:nonzero;stroke:none" /><path
         d="m 549.833,118.7588 c -0.058,0.142 0.012,0.301 0.149,0.358 0.14,0.057 0.303,-0.009 0.359,-0.149 0.058,-0.142 -0.01,-0.302 -0.15,-0.358 -0.142,-0.057 -0.301,0.009 -0.358,0.149"
         id="path2538"
         style="opacity:0.19999701;fill:#e0ae66;fill-opacity:1;fill-rule:nonzero;stroke:none" /><path
         d="m 534.1094,113.6787 c 0.266,0.19 0.634,0.13 0.823,-0.134 0.189,-0.263 0.132,-0.632 -0.132,-0.82 -0.265,-0.192 -0.633,-0.132 -0.823,0.134 -0.19,0.261 -0.132,0.631 0.132,0.82"
         id="path2554"
         style="opacity:0.19999701;fill:#e0ae66;fill-opacity:1;fill-rule:nonzero;stroke:none" /><path
         d="m 535.8711,114.3652 c 0.126,0.091 0.295,0.062 0.386,-0.062 0.088,-0.123 0.058,-0.294 -0.066,-0.382 -0.12,-0.089 -0.293,-0.062 -0.38,0.062 -0.089,0.122 -0.062,0.293 0.06,0.382"
         id="path2570"
         style="opacity:0.19999701;fill:#e0ae66;fill-opacity:1;fill-rule:nonzero;stroke:none" /><path
         d="m 536.2344,112.5645 c 0.124,0.089 0.296,0.062 0.384,-0.062 0.087,-0.125 0.061,-0.295 -0.063,-0.384 -0.122,-0.089 -0.295,-0.061 -0.382,0.063 -0.09,0.122 -0.062,0.295 0.061,0.383"
         id="path2586"
         style="opacity:0.19999701;fill:#e0ae66;fill-opacity:1;fill-rule:nonzero;stroke:none" /><path
         d="m 539.2393,115.2979 c -0.173,-0.275 -0.537,-0.358 -0.811,-0.187 -0.275,0.175 -0.358,0.538 -0.186,0.813 0.173,0.275 0.537,0.357 0.812,0.185 0.274,-0.171 0.358,-0.536 0.185,-0.811"
         id="path2602"
         style="opacity:0.19999701;fill:#e0ae66;fill-opacity:1;fill-rule:nonzero;stroke:none" /><path
         d="m 537.8682,113.9971 c -0.081,-0.128 -0.25,-0.167 -0.38,-0.086 -0.128,0.08 -0.167,0.25 -0.085,0.378 0.079,0.129 0.248,0.167 0.378,0.086 0.128,-0.08 0.167,-0.25 0.087,-0.378"
         id="path2618"
         style="opacity:0.19999701;fill:#e0ae66;fill-opacity:1;fill-rule:nonzero;stroke:none" /><path
         d="m 536.8525,115.5283 c -0.081,-0.128 -0.25,-0.165 -0.38,-0.087 -0.126,0.081 -0.167,0.252 -0.084,0.38 0.078,0.128 0.249,0.167 0.377,0.087 0.128,-0.081 0.166,-0.25 0.087,-0.38"
         id="path2634"
         style="opacity:0.19999701;fill:#e0ae66;fill-opacity:1;fill-rule:nonzero;stroke:none" /><path
         d="m 547.8711,109.9229 c -0.32,0.043 -0.547,0.34 -0.504,0.661 0.046,0.322 0.341,0.547 0.663,0.503 0.323,-0.043 0.549,-0.338 0.504,-0.661 -0.043,-0.322 -0.341,-0.547 -0.663,-0.503"
         id="path2650"
         style="opacity:0.19999701;fill:#e0ae66;fill-opacity:1;fill-rule:nonzero;stroke:none" /><path
         d="m 546.1201,110.6348 c -0.149,0.02 -0.256,0.159 -0.234,0.309 0.019,0.149 0.159,0.255 0.308,0.236 0.153,-0.02 0.256,-0.159 0.235,-0.309 -0.02,-0.149 -0.158,-0.256 -0.309,-0.236"
         id="path2666"
         style="opacity:0.19999701;fill:#e0ae66;fill-opacity:1;fill-rule:nonzero;stroke:none" /><path
         d="m 547.0977,112.1934 c -0.151,0.018 -0.256,0.157 -0.234,0.309 0.02,0.147 0.16,0.253 0.309,0.234 0.15,-0.02 0.256,-0.159 0.237,-0.31 -0.023,-0.149 -0.163,-0.254 -0.312,-0.233"
         id="path2682"
         style="opacity:0.19999701;fill:#e0ae66;fill-opacity:1;fill-rule:nonzero;stroke:none" /><path
         d="m 555.9443,112.5371 c 0.087,0.313 0.413,0.496 0.724,0.407 0.315,-0.088 0.496,-0.413 0.407,-0.725 -0.086,-0.313 -0.411,-0.496 -0.724,-0.408 -0.312,0.089 -0.494,0.414 -0.407,0.726"
         id="path2698"
         style="opacity:0.19999701;fill:#e0ae66;fill-opacity:1;fill-rule:nonzero;stroke:none" /><path
         d="m 556.8926,114.1729 c 0.041,0.146 0.192,0.229 0.341,0.19 0.145,-0.041 0.229,-0.194 0.19,-0.339 -0.043,-0.147 -0.194,-0.233 -0.341,-0.19 -0.145,0.041 -0.229,0.193 -0.19,0.339"
         id="path2714"
         style="opacity:0.19999701;fill:#e0ae66;fill-opacity:1;fill-rule:nonzero;stroke:none" /><path
         d="m 558.2998,112.9883 c 0.041,0.147 0.192,0.229 0.338,0.19 0.145,-0.041 0.23,-0.192 0.191,-0.339 -0.042,-0.147 -0.193,-0.231 -0.339,-0.19 -0.145,0.041 -0.232,0.193 -0.19,0.339"
         id="path2730"
         style="opacity:0.19999701;fill:#e0ae66;fill-opacity:1;fill-rule:nonzero;stroke:none" /><path
         d="m 544.0088,124.9551 c -4.549,0 -16.08,-12.024 -15.764,-13.427 0.318,-1.403 7.584,-3.259 13.82,-3.259 4.651,0 3.827,16.686 1.944,16.686"
         id="path2746"
         style="opacity:0.19999701;fill:#e0ae66;fill-opacity:1;fill-rule:nonzero;stroke:none" /></g><g
       transform="translate(364.71173,26.563649)"
       id="g28850"><path
         d="m 310.3652,111.2813 c 0,-6.23 -17.908,-11.281 -40,-11.281 -22.092,0 -40,5.051 -40,11.281 0,6.23 17.908,11.279 40,11.279 22.092,0 40,-5.049 40,-11.279"
         id="path414"
         style="opacity:0.39999402;fill:#c7a687;fill-opacity:1;fill-rule:nonzero;stroke:none" /><path
         d="m 235.8799,125.748 c 0.002,-1.469 8.721,-12.537 34.485,-12.537 25.764,0 34.484,11.068 34.486,12.537 -0.002,1.469 -68.969,1.469 -68.971,0"
         id="path2750"
         style="fill:#709ecb;fill-opacity:1;fill-rule:nonzero;stroke:none" /><path
         d="m 303.8662,126.0352 c -2.905,-3.531 -12.588,-10.824 -33.501,-10.824 -20.914,0 -30.596,7.293 -33.501,10.824 -0.633,-0.088 -0.984,-0.184 -0.984,-0.287 0.002,-1.469 8.72,-12.537 34.485,-12.537 25.764,0 34.483,11.068 34.485,12.537 0,0.103 -0.351,0.199 -0.984,0.287"
         id="path2766"
         style="fill:#f0f4f5;fill-opacity:1;fill-rule:nonzero;stroke:none" /><path
         d="m 270.3652,128.8496 c 7.47,0 13.389,-0.031 18.113,-0.1 -2.759,10.252 -16.119,48.623 -18.051,48.625 -2.09,-0.002 -18.995,-28.111 -18.666,-48.63 4.801,0.072 10.876,0.105 18.604,0.105"
         id="path2770"
         style="fill:#f0f4f5;fill-opacity:1;fill-rule:nonzero;stroke:none" /><path
         d="m 275.4863,166.7012 -21.045,-21.047 c -1.681,-5.732 -2.766,-11.578 -2.68,-16.91 3.835,0.059 8.5,0.09 14.154,0.102 l 17.081,17.08 c -2.413,7.066 -5.171,14.759 -7.51,20.775"
         id="path2774"
         style="fill:#e96565;fill-opacity:1;fill-rule:nonzero;stroke:none" /><path
         d="m 288.4785,128.75 c -0.007,0.025 -0.016,0.059 -0.023,0.084 -17.951,10.775 -32.561,2.715 -36.694,-0.076 l 0,-0.014 c 4.801,0.072 10.876,0.106 18.604,0.106 7.469,0 13.388,-0.032 18.113,-0.1"
         id="path2790"
         style="fill:#f0f4f5;fill-opacity:1;fill-rule:nonzero;stroke:none" /><path
         d="m 280.5176,153.0586 c -0.011,-0.018 -9.215,-15.514 7.937,-24.225 -1.235,4.565 -4.5,14.512 -7.937,24.225"
         id="path2806"
         style="fill:#f0f4f5;fill-opacity:1;fill-rule:nonzero;stroke:none" /><path
         d="m 280.5166,153.0605 c -4.369,12.35 -9.011,24.314 -10.09,24.314 0,0 -3.924,-18.623 10.09,-24.314"
         id="path2810"
         style="fill:#f0f4f5;fill-opacity:1;fill-rule:nonzero;stroke:none" /></g><g
       transform="translate(364.71173,26.563649)"
       id="g28938"><path
         d="m 700.3652,111.2813 c 0,-6.23 -17.908,-11.281 -40,-11.281 -22.092,0 -40,5.051 -40,11.281 0,6.23 17.908,11.279 40,11.279 22.092,0 40,-5.049 40,-11.279"
         id="path446"
         style="opacity:0.39999402;fill:#c7a687;fill-opacity:1;fill-rule:nonzero;stroke:none" /><path
         d="m 691.6738,149.6123 c 2.457,4.515 -2.749,10.405 -6.536,14.192 -3.785,3.787 -9.68,8.995 -14.193,6.537 -3.932,-2.145 -16.024,-10.534 -19.77,-16.858 -3.079,-5.202 7.66,-15.983 7.66,-15.983 0,0 10.779,-10.738 15.982,-7.657 6.326,3.745 14.712,15.836 16.857,19.769"
         id="path2814"
         style="fill:#709ecb;fill-opacity:1;fill-rule:nonzero;stroke:none" /><path
         d="m 691.6738,149.6123 c 0.714,1.311 0.767,2.738 0.411,4.196 -2.09,-3.578 -12.074,-16.381 -17.091,-19.35 -4.227,-2.504 -12.981,6.219 -12.981,6.219 0,0 -8.726,8.756 -6.222,12.982 2.97,5.018 15.773,15.003 19.351,17.093 -1.458,0.355 -2.886,0.3 -4.197,-0.411 -3.932,-2.145 -16.024,-10.534 -19.77,-16.858 -3.079,-5.202 7.66,-15.983 7.66,-15.983 0,0 10.779,-10.738 15.982,-7.657 6.326,3.745 14.712,15.836 16.857,19.769"
         id="path2830"
         style="opacity:0.30000299;fill:#709ecb;fill-opacity:1;fill-rule:nonzero;stroke:none" /><path
         d="m 658.835,137.5 c 0,0 0.861,-0.856 2.213,-2.019 0.82,0.839 1.507,1.562 1.983,2.088 3.013,3.316 3.958,7.863 2.847,8.973 -1.111,1.111 -5.657,0.165 -8.974,-2.844 -0.483,-0.436 -1.129,-1.051 -1.876,-1.778 1.949,-2.553 3.807,-4.42 3.807,-4.42"
         id="path2846"
         style="opacity:0.5;fill:#709ecb;fill-opacity:1;fill-rule:nonzero;stroke:none" /><path
         d="m 664.0312,136.5693 c 3.011,3.315 3.958,7.864 2.847,8.976 -1.112,1.109 -5.66,0.164 -8.976,-2.847 -3.316,-3.009 -14.359,-14.359 -14.359,-14.359 l 3.065,-3.066 3.066,-3.063 c 0,0 11.348,11.041 14.357,14.359"
         id="path2850"
         style="fill:#f5d266;fill-opacity:1;fill-rule:nonzero;stroke:none" /><path
         d="m 664.0312,136.5693 c 3.011,3.315 3.958,7.864 2.847,8.976 -0.155,0.152 -0.384,0.263 -0.659,0.337 0.46,-1.701 -0.595,-5.461 -3.188,-8.313 -0.477,-0.526 -1.163,-1.249 -1.983,-2.088 0.335,-0.285 0.7,-0.593 1.089,-0.905 0.779,0.798 1.434,1.486 1.894,1.993"
         id="path2866"
         style="opacity:0.5;fill:#f5d266;fill-opacity:1;fill-rule:nonzero;stroke:none" /><path
         d="m 643.1436,112.2314 c -0.649,-0.13 -2.939,0.187 -6.166,3.413 -3.226,3.227 -3.543,5.515 -3.411,6.166 0.129,0.65 1.809,2.281 3.528,2.905 1.718,0.624 5.427,0.887 7.632,-1.32 2.207,-2.207 1.946,-5.916 1.32,-7.634 -0.624,-1.718 -2.253,-3.399 -2.903,-3.53 m 6.867,2.126 c 0.999,2.747 0.047,10.231 -2.021,12.301 -2.07,2.07 -9.55,3.016 -12.299,2.019 -2.746,-1 -7.033,-5.202 -7.24,-6.243 -0.207,-1.042 0.602,-4.807 5.555,-9.762 4.953,-4.953 8.72,-5.764 9.76,-5.555 1.041,0.207 5.245,4.494 6.245,7.24"
         id="path2870"
         style="fill:#e96565;fill-opacity:1;fill-rule:nonzero;stroke:none" /></g></g></svg>