<svg xmlns="http://www.w3.org/2000/svg" viewBox="0 0 304.02 125.1"><defs><style>.cls-1{font-size:52.12px;fill:#e98524;font-family:Quasimoda-Regular,Quasimoda;letter-spacing:.03em}.cls-2{letter-spacing:-.03em}.cls-3{letter-spacing:.01em}.cls-4{letter-spacing:.06em}.cls-5{letter-spacing:.01em}.cls-6{letter-spacing:.03em}.cls-7{fill:none;stroke:#e98524;stroke-miterlimit:10;stroke-width:5px}</style></defs><title>2 row</title><g id="Layer_2" data-name="Layer 2"><g id="Layer_1-2" data-name="Layer 1"><text class="cls-1" transform="translate(2.14 110.82) scale(0.99 1)">W<tspan x="51.03" y="0" class="cls-2">A</tspan><tspan x="84.12" y="0" class="cls-3">T</tspan><tspan x="115.44" y="0">O</tspan><tspan x="161.88" y="0" class="cls-4">R</tspan><tspan x="196.54" y="0" class="cls-5">A</tspan><tspan x="231.72" y="0" class="cls-6">CE</tspan></text><path d="M21.18,45.32l-7-2.34L3.55,14.41l28.68-1,3.33,3.81,19,.48,4.29,9.05,11.43,3.33,42.38-12.86,6.67-8.09,5.71-6.67h4.76V8.21h2.38l2.86,8.58h10.48l6.19,9.52,14.29,3.81L168.43,23l45.71,8.57m31.41,23.13,8.6-.27-4.32,7h41.46l5.53-4.51-45-22.38-6.2,2.71M214.14,61.44h-32l-.8-5.6-10.48.95-5.08,4.65H54.05M226.83,27.89a19.46,19.46,0,1,0,19.46,19.46A19.45,19.45,0,0,0,226.83,27.89Zm-186.19,0A19.46,19.46,0,1,0,60.09,47.35,19.46,19.46,0,0,0,40.64,27.89Z" class="cls-7"/></g></g></svg>